<svg xmlns="http://www.w3.org/2000/svg" width="486.61077880859375" height="420.64556884765625" viewBox="-119.66191864013672 -237.50689697265625 486.61077880859375 420.64556884765625"><title>Neo4j Graph Visualization</title><desc>Created using Neo4j (http://www.neo4j.com/)</desc><g class="layer relationships"><g class="relationship" transform="translate(38.80284169111087 -44.7151966140055) rotate(370.57093675613606)"><path class="outline" fill="#D9C8AE" stroke="none" d="M 25 0.5 L 68.96430400768105 0.5 L 68.96430400768105 -0.5 L 25 -0.5 Z M 106.07367900768105 0.5 L 150.0379830153621 0.5 L 150.0379830153621 3.5 L 157.0379830153621 0 L 150.0379830153621 -3.5 L 150.0379830153621 -0.5 L 106.07367900768105 -0.5 Z"/><text text-anchor="middle" pointer-events="none" font-size="8px" fill="#000000" x="87.51899150768105" y="3" font-family="sans-serif">similarity</text></g><g class="relationship" transform="translate(38.80284169111087 -44.7151966140055) rotate(341.1303104309402)"><path class="outline" fill="#D9C8AE" stroke="none" d="M 24.018736134675446,-6.953439040707552 L 24.277555179777966,-5.987513214418485 A 202.33637303405527 202.33637303405527 0 0 1 55.91933036743673,-11.817566179334477 L 55.816893364342704,-12.812305673069943 A 203.33637303405527 203.33637303405527 0 0 0 24.018736134675446,-6.953439040707552 Z M 92.96357871508783,-13.226169193166271 L 92.88332983273763,-12.229394335497034 A 202.33637303405527 202.33637303405527 0 0 1 124.64714363228147,-7.105764029944936 L 123.93544141767902,-4.191406475057416 L 131.5659282961194,-5.9308517883537935 L 125.59607991841807,-10.991574103128295 L 124.88437770381562,-8.077216548240775 A 203.33637303405527 203.33637303405527 0 0 0 92.96357871508783,-13.226169193166271"/><text text-anchor="middle" pointer-events="none" font-size="8px" fill="#000000" x="74.38633509525147" y="-10.369370144825012" font-family="sans-serif">similarity</text></g><g class="relationship" transform="translate(38.80284169111087 -44.7151966140055) rotate(367.28270775760507)"><path class="outline" fill="#C990C0" stroke="none" d="M 25 0.5 L 100.70937304187913 0.5 L 100.70937304187913 -0.5 L 25 -0.5 Z M 193.86952929187913 0.5 L 269.57890233375826 0.5 L 269.57890233375826 3.5 L 276.57890233375826 0 L 269.57890233375826 -3.5 L 269.57890233375826 -0.5 L 193.86952929187913 -0.5 Z"/><text text-anchor="middle" pointer-events="none" font-size="8px" fill="#000000" x="147.28945116687913" y="3" font-family="sans-serif">virus_protein_interaction</text></g><g class="relationship" transform="translate(38.80284169111087 -44.7151966140055) rotate(378.8957382357254)"><path class="outline" fill="#57C7E3" stroke="none" d="M 25 0.5 L 42.085656577718375 0.5 L 42.085656577718375 -0.5 L 25 -0.5 Z M 76.99581282771837 0.5 L 94.08146940543675 0.5 L 94.08146940543675 3.5 L 101.08146940543675 0 L 94.08146940543675 -3.5 L 94.08146940543675 -0.5 L 76.99581282771837 -0.5 Z"/><text text-anchor="middle" pointer-events="none" font-size="8px" fill="#000000" x="59.540734702718375" y="3" font-family="sans-serif">produce</text></g><g class="relationship" transform="translate(-90.66192140205979 -21.52220894014683) rotate(349.84347410813837)"><path class="outline" fill="#F16667" stroke="none" d="M 25 0.5 L 49.551969141986575 0.5 L 49.551969141986575 -0.5 L 25 -0.5 Z M 74.97384414198658 0.5 L 99.52581328397315 0.5 L 99.52581328397315 3.5 L 106.52581328397315 0 L 99.52581328397315 -3.5 L 99.52581328397315 -0.5 L 74.97384414198658 -0.5 Z"/><text text-anchor="middle" pointer-events="none" font-size="8px" fill="#000000" x="62.262906641986575" y="3" font-family="sans-serif">effect</text></g><g class="relationship" transform="translate(158.08971133735952 -3.884085222898773) rotate(359.1713614455589)"><path class="outline" fill="#8DCC93" stroke="none" d="M 25 0.5 L 70.53857475925405 0.5 L 70.53857475925405 -0.5 L 25 -0.5 Z M 102.33935600925405 0.5 L 147.8779307685081 0.5 L 147.8779307685081 3.5 L 154.8779307685081 0 L 147.8779307685081 -3.5 L 147.8779307685081 -0.5 L 102.33935600925405 -0.5 Z"/><text text-anchor="middle" pointer-events="none" font-size="8px" fill="#000000" x="86.43896538425405" y="3" font-family="sans-serif">binding</text></g><g class="relationship" transform="translate(277.55947919792146 -62.612509870489504) rotate(513.8223938815624)"><path class="outline" fill="#4C8EDA" stroke="none" d="M 25 0.5 L 49.83358563060247 0.5 L 49.83358563060247 -0.5 L 25 -0.5 Z M 76.29061688060247 0.5 L 101.12420251120494 0.5 L 101.12420251120494 3.5 L 108.12420251120494 0 L 101.12420251120494 -3.5 L 101.12420251120494 -0.5 L 76.29061688060247 -0.5 Z"/><text text-anchor="middle" pointer-events="none" font-size="8px" fill="#000000" x="63.06210125560247" y="3" transform="rotate(180 63.06210125560247 0)" font-family="sans-serif">target</text></g><g class="relationship" transform="translate(277.55947919792146 -62.612509870489504) rotate(199.6024697550822)"><path class="outline" fill="#F16667" stroke="none" d="M 25 0.5 L 32.23718472975783 0.5 L 32.23718472975783 -0.5 L 25 -0.5 Z M 57.65905972975783 0.5 L 64.89624445951566 0.5 L 64.89624445951566 3.5 L 71.89624445951566 0 L 64.89624445951566 -3.5 L 64.89624445951566 -0.5 L 57.65905972975783 -0.5 Z"/><text text-anchor="middle" pointer-events="none" font-size="8px" fill="#000000" x="44.94812222975783" y="3" transform="rotate(180 44.94812222975783 0)" font-family="sans-serif">effect</text></g><g class="relationship" transform="translate(186.27905113897575 -95.12044188305923) rotate(521.1303104309402)"><path class="outline" fill="#D9C8AE" stroke="none" d="M 24.018736134675446,-6.953439040707552 L 24.277555179777966,-5.987513214418485 A 202.33637303405527 202.33637303405527 0 0 1 55.91933036743673,-11.817566179334477 L 55.816893364342704,-12.812305673069943 A 203.33637303405527 203.33637303405527 0 0 0 24.018736134675446,-6.953439040707552 Z M 92.96357871508783,-13.226169193166271 L 92.88332983273763,-12.229394335497034 A 202.33637303405527 202.33637303405527 0 0 1 124.64714363228147,-7.105764029944936 L 123.93544141767902,-4.191406475057416 L 131.5659282961194,-5.9308517883537935 L 125.59607991841807,-10.991574103128295 L 124.88437770381562,-8.077216548240775 A 203.33637303405527 203.33637303405527 0 0 0 92.96357871508783,-13.226169193166271"/><text text-anchor="middle" pointer-events="none" font-size="8px" fill="#000000" x="74.38633509525147" y="-10.369370144825012" transform="rotate(180 74.38633509525147 -13.369370144825012)" font-family="sans-serif">similarity</text></g><g class="relationship" transform="translate(186.27905113897575 -95.12044188305923) rotate(429.4157316290755)"><path class="outline" fill="#D9C8AE" stroke="none" d="M 25 0.5 L 26.259772055362603 0.5 L 26.259772055362603 -0.5 L 25 -0.5 Z M 56.2558658053626 0.5 L 57.51563786072521 0.5 L 57.51563786072521 3.5 L 64.5156378607252 0 L 57.51563786072521 -3.5 L 57.51563786072521 -0.5 L 56.2558658053626 -0.5 Z"/><text text-anchor="middle" pointer-events="none" font-size="8px" fill="#000000" x="41.2578189303626" y="3" font-family="sans-serif">simil…</text></g><g class="relationship" transform="translate(186.27905113897575 -95.12044188305923) rotate(390.30177545717845)"><path class="outline" fill="#C990C0" stroke="none" d="M 25 0.5 L 37.75482314815339 0.5 L 37.75482314815339 -0.5 L 25 -0.5 Z M 130.91497939815338 0.5 L 143.66980254630678 0.5 L 143.66980254630678 3.5 L 150.66980254630678 0 L 143.66980254630678 -3.5 L 143.66980254630678 -0.5 L 130.91497939815338 -0.5 Z"/><text text-anchor="middle" pointer-events="none" font-size="8px" fill="#000000" x="84.33490127315339" y="3" font-family="sans-serif">virus_protein_interaction</text></g><g class="relationship" transform="translate(186.27905113897575 -95.12044188305923) rotate(467.1696044141322)"><path class="outline" fill="#57C7E3" stroke="none" d="M 25 0.5 L 26.790894624204178 0.5 L 26.790894624204178 -0.5 L 25 -0.5 Z M 61.70105087420418 0.5 L 63.491945498408356 0.5 L 63.491945498408356 3.5 L 70.49194549840836 0 L 63.491945498408356 -3.5 L 63.491945498408356 -0.5 L 61.70105087420418 -0.5 Z"/><text text-anchor="middle" pointer-events="none" font-size="8px" fill="#000000" x="44.24597274920418" y="3" transform="rotate(180 44.24597274920418 0)" font-family="sans-serif">produce</text></g><g class="relationship" transform="translate(140.70459190558384 154.13867622864967) rotate(276.27823553812016)"><path class="outline" fill="#4C8EDA" stroke="none" d="M 25 0.5 L 62.75958963992326 0.5 L 62.75958963992326 -0.5 L 25 -0.5 Z M 89.21662088992326 0.5 L 126.97621052984653 0.5 L 126.97621052984653 3.5 L 133.97621052984653 0 L 126.97621052984653 -3.5 L 126.97621052984653 -0.5 L 89.21662088992326 -0.5 Z"/><text text-anchor="middle" pointer-events="none" font-size="8px" fill="#000000" x="75.98810526492326" y="3" font-family="sans-serif">target</text></g><g class="relationship" transform="translate(-63.67487543731968 53.03557662355445) rotate(316.3523731663696)"><path class="outline" fill="#F16667" stroke="none" d="M 25 0.5 L 54.60024836846907 0.5 L 54.60024836846907 -0.5 L 25 -0.5 Z M 80.02212336846907 0.5 L 109.62237173693813 0.5 L 109.62237173693813 3.5 L 116.62237173693813 0 L 109.62237173693813 -3.5 L 109.62237173693813 -0.5 L 80.02212336846907 -0.5 Z"/><text text-anchor="middle" pointer-events="none" font-size="8px" fill="#000000" x="67.31118586846907" y="3" font-family="sans-serif">effect</text></g><g class="relationship" transform="translate(94.7081128848115 -121.55534077672826) rotate(486.03787204665525)"><path class="outline" fill="#F16667" stroke="none" d="M 25 0.5 L 31.301711084848513 0.5 L 31.301711084848513 -0.5 L 25 -0.5 Z M 56.72358608484851 0.5 L 63.025297169697026 0.5 L 63.025297169697026 3.5 L 70.02529716969703 0 L 63.025297169697026 -3.5 L 63.025297169697026 -0.5 L 56.72358608484851 -0.5 Z"/><text text-anchor="middle" pointer-events="none" font-size="8px" fill="#000000" x="44.01264858484851" y="3" transform="rotate(180 44.01264858484851 0)" font-family="sans-serif">effect</text></g><g class="relationship" transform="translate(94.7081128848115 -121.55534077672826) rotate(421.6916375664278)"><path class="outline" fill="#4C8EDA" stroke="none" d="M 25 0.5 L 50.099157172305084 0.5 L 50.099157172305084 -0.5 L 25 -0.5 Z M 76.55618842230508 0.5 L 101.65534559461017 0.5 L 101.65534559461017 3.5 L 108.65534559461017 0 L 101.65534559461017 -3.5 L 101.65534559461017 -0.5 L 76.55618842230508 -0.5 Z"/><text text-anchor="middle" pointer-events="none" font-size="8px" fill="#000000" x="63.327672797305084" y="3" font-family="sans-serif">target</text></g><g class="relationship" transform="translate(94.7081128848115 -121.55534077672826) rotate(376.1024868416071)"><path class="outline" fill="#F16667" stroke="none" d="M 25 0.5 L 31.44417925640525 0.5 L 31.44417925640525 -0.5 L 25 -0.5 Z M 56.86605425640525 0.5 L 63.3102335128105 0.5 L 63.3102335128105 3.5 L 70.3102335128105 0 L 63.3102335128105 -3.5 L 63.3102335128105 -0.5 L 56.86605425640525 -0.5 Z"/><text text-anchor="middle" pointer-events="none" font-size="8px" fill="#000000" x="44.15511675640525" y="3" font-family="sans-serif">effect</text></g><g class="relationship" transform="translate(34.72283675633402 60.62512653392611) rotate(272.21805161362533)"><path class="outline" fill="#F16667" stroke="none" d="M 25 0.5 L 36.498715603531366 0.5 L 36.498715603531366 -0.5 L 25 -0.5 Z M 61.920590603531366 0.5 L 73.41930620706273 0.5 L 73.41930620706273 3.5 L 80.41930620706273 0 L 73.41930620706273 -3.5 L 73.41930620706273 -0.5 L 61.920590603531366 -0.5 Z"/><text text-anchor="middle" pointer-events="none" font-size="8px" fill="#000000" x="49.209653103531366" y="3" font-family="sans-serif">effect</text></g><g class="relationship" transform="translate(34.72283675633402 60.62512653392611) rotate(332.39468651615107)"><path class="outline" fill="#4C8EDA" stroke="none" d="M 25 0.5 L 52.87899859828151 0.5 L 52.87899859828151 -0.5 L 25 -0.5 Z M 79.33602984828151 0.5 L 107.21502844656302 0.5 L 107.21502844656302 3.5 L 114.21502844656302 0 L 107.21502844656302 -3.5 L 107.21502844656302 -0.5 L 79.33602984828151 -0.5 Z"/><text text-anchor="middle" pointer-events="none" font-size="8px" fill="#000000" x="66.10751422328151" y="3" font-family="sans-serif">target</text></g><g class="relationship" transform="translate(129.3642965334569 48.71957511567641) rotate(225.89466807808594)"><path class="outline" fill="#F16667" stroke="none" d="M 25 0.5 L 48.849483785409845 0.5 L 48.849483785409845 -0.5 L 25 -0.5 Z M 74.27135878540984 0.5 L 98.12084257081969 0.5 L 98.12084257081969 3.5 L 105.12084257081969 0 L 98.12084257081969 -3.5 L 98.12084257081969 -0.5 L 74.27135878540984 -0.5 Z"/><text text-anchor="middle" pointer-events="none" font-size="8px" fill="#000000" x="61.560421285409845" y="3" transform="rotate(180 61.560421285409845 0)" font-family="sans-serif">effect</text></g><g class="relationship" transform="translate(129.3642965334569 48.71957511567641) rotate(375.8727299358368)"><path class="outline" fill="#F16667" stroke="none" d="M 25 0.5 L 45.62477182830282 0.5 L 45.62477182830282 -0.5 L 25 -0.5 Z M 71.04664682830281 0.5 L 91.67141865660564 0.5 L 91.67141865660564 3.5 L 98.67141865660564 0 L 91.67141865660564 -3.5 L 91.67141865660564 -0.5 L 71.04664682830281 -0.5 Z"/><text text-anchor="middle" pointer-events="none" font-size="8px" fill="#000000" x="58.33570932830282" y="3" font-family="sans-serif">effect</text></g><g class="relationship" transform="translate(129.3642965334569 48.71957511567641) rotate(325.81259052074546)"><path class="outline" fill="#F16667" stroke="none" d="M 25 0.5 L 37.21425681676368 0.5 L 37.21425681676368 -0.5 L 25 -0.5 Z M 62.63613181676368 0.5 L 74.85038863352736 0.5 L 74.85038863352736 3.5 L 81.85038863352736 0 L 74.85038863352736 -3.5 L 74.85038863352736 -0.5 L 62.63613181676368 -0.5 Z"/><text text-anchor="middle" pointer-events="none" font-size="8px" fill="#000000" x="49.92519431676368" y="3" font-family="sans-serif">effect</text></g><g class="relationship" transform="translate(248.32032090160095 82.54388677257404) rotate(251.96093070536512)"><path class="outline" fill="#D9C8AE" stroke="none" d="M 25 0.5 L 27.303336405967563 0.5 L 27.303336405967563 -0.5 L 25 -0.5 Z M 64.41271140596757 0.5 L 66.71604781193513 0.5 L 66.71604781193513 3.5 L 73.71604781193513 0 L 66.71604781193513 -3.5 L 66.71604781193513 -0.5 L 64.41271140596757 -0.5 Z"/><text text-anchor="middle" pointer-events="none" font-size="8px" fill="#000000" x="45.85802390596756" y="3" transform="rotate(180 45.85802390596756 0)" font-family="sans-serif">similarity</text></g><g class="relationship" transform="translate(248.32032090160095 82.54388677257404) rotate(315.1921470178356)"><path class="outline" fill="#C990C0" stroke="none" d="M 25 0.5 L 26.65177912502071 0.5 L 26.65177912502071 -0.5 L 25 -0.5 Z M 92.67912287502071 0.5 L 94.33090200004142 0.5 L 94.33090200004142 3.5 L 101.33090200004142 0 L 94.33090200004142 -3.5 L 94.33090200004142 -0.5 L 92.67912287502071 -0.5 Z"/><text text-anchor="middle" pointer-events="none" font-size="8px" fill="#000000" x="59.66545100002071" y="3" font-family="sans-serif">virus_protein_i…</text></g><g class="relationship" transform="translate(248.32032090160095 82.54388677257404) rotate(223.7668787951871)"><path class="outline" fill="#57C7E3" stroke="none" d="M 25 0.5 L 41.51763040757607 0.5 L 41.51763040757607 -0.5 L 25 -0.5 Z M 76.42778665757606 0.5 L 92.94541706515214 0.5 L 92.94541706515214 3.5 L 99.94541706515214 0 L 92.94541706515214 -3.5 L 92.94541706515214 -0.5 L 76.42778665757606 -0.5 Z"/><text text-anchor="middle" pointer-events="none" font-size="8px" fill="#000000" x="58.97270853257607" y="3" transform="rotate(180 58.97270853257607 0)" font-family="sans-serif">produce</text></g><g class="relationship" transform="translate(217.75137288168955 -11.319830991875362) rotate(532.8957511381653)"><path class="outline" fill="#57C7E3" stroke="none" d="M 25 0.5 L 26.561620770390284 0.5 L 26.561620770390284 -0.5 L 25 -0.5 Z M 26.561620770390284 0.5 L 28.12324154078057 0.5 L 28.12324154078057 3.5 L 35.12324154078057 0 L 28.12324154078057 -3.5 L 28.12324154078057 -0.5 L 26.561620770390284 -0.5 Z"/><text text-anchor="middle" pointer-events="none" font-size="8px" fill="#000000" x="26.561620770390284" y="3" transform="rotate(180 26.561620770390284 0)" font-family="sans-serif"/></g><g class="relationship" transform="translate(217.75137288168955 -11.319830991875362) rotate(362.3032021670684)"><path class="outline" fill="#C990C0" stroke="none" d="M 25 0.5 L 26.746928168140677 0.5 L 26.746928168140677 -0.5 L 25 -0.5 Z M 86.54770941814067 0.5 L 88.29463758628135 0.5 L 88.29463758628135 3.5 L 95.29463758628135 0 L 88.29463758628135 -3.5 L 88.29463758628135 -0.5 L 86.54770941814067 -0.5 Z"/><text text-anchor="middle" pointer-events="none" font-size="8px" fill="#000000" x="56.64731879314068" y="3" font-family="sans-serif">virus_protein…</text></g><g class="relationship" transform="translate(94.42865524503942 97.43074765366427) rotate(248.628158659382)"><path class="outline" fill="#F16667" stroke="none" d="M 25 0.5 L 60.11025976079364 0.5 L 60.11025976079364 -0.5 L 25 -0.5 Z M 85.53213476079364 0.5 L 120.64239452158728 0.5 L 120.64239452158728 3.5 L 127.64239452158728 0 L 120.64239452158728 -3.5 L 120.64239452158728 -0.5 L 85.53213476079364 -0.5 Z"/><text text-anchor="middle" pointer-events="none" font-size="8px" fill="#000000" x="72.82119726079364" y="3" transform="rotate(180 72.82119726079364 0)" font-family="sans-serif">effect</text></g><g class="relationship" transform="translate(94.42865524503942 97.43074765366427) rotate(354.47462909408773)"><path class="outline" fill="#F16667" stroke="none" d="M 25 0.5 L 61.09408074824158 0.5 L 61.09408074824158 -0.5 L 25 -0.5 Z M 86.51595574824158 0.5 L 122.61003649648316 0.5 L 122.61003649648316 3.5 L 129.61003649648316 0 L 122.61003649648316 -3.5 L 122.61003649648316 -0.5 L 86.51595574824158 -0.5 Z"/><text text-anchor="middle" pointer-events="none" font-size="8px" fill="#000000" x="73.80501824824158" y="3" font-family="sans-serif">effect</text></g><g class="relationship" transform="translate(211.94814301849075 140.06477311003277) rotate(249.48667559037222)"><path class="outline" fill="#4C8EDA" stroke="none" d="M 25 0.5 L 60.11874274916953 0.5 L 60.11874274916953 -0.5 L 25 -0.5 Z M 86.57577399916953 0.5 L 121.69451674833905 0.5 L 121.69451674833905 3.5 L 128.69451674833905 0 L 121.69451674833905 -3.5 L 121.69451674833905 -0.5 L 86.57577399916953 -0.5 Z"/><text text-anchor="middle" pointer-events="none" font-size="8px" fill="#000000" x="73.34725837416953" y="3" transform="rotate(180 73.34725837416953 0)" font-family="sans-serif">target</text></g><g class="relationship" transform="translate(-66.89415278965144 -109.17268802537566) rotate(391.3762075844464)"><path class="outline" fill="#F16667" stroke="none" d="M 25 0.5 L 45.689431726106314 0.5 L 45.689431726106314 -0.5 L 25 -0.5 Z M 71.1113067261063 0.5 L 91.80073845221263 0.5 L 91.80073845221263 3.5 L 98.80073845221263 0 L 91.80073845221263 -3.5 L 91.80073845221263 -0.5 L 71.1113067261063 -0.5 Z"/><text text-anchor="middle" pointer-events="none" font-size="8px" fill="#000000" x="58.400369226106314" y="3" font-family="sans-serif">effect</text></g><g class="relationship" transform="translate(217.37577427846924 -208.50689793539098) rotate(465.33652216075114)"><path class="outline" fill="#F16667" stroke="none" d="M 25 0.5 L 42.57574170141788 0.5 L 42.57574170141788 -0.5 L 25 -0.5 Z M 67.99761670141788 0.5 L 85.57335840283577 0.5 L 85.57335840283577 3.5 L 92.57335840283577 0 L 85.57335840283577 -3.5 L 85.57335840283577 -0.5 L 67.99761670141788 -0.5 Z"/><text text-anchor="middle" pointer-events="none" font-size="8px" fill="#000000" x="55.28667920141788" y="3" transform="rotate(180 55.28667920141788 0)" font-family="sans-serif">effect</text></g></g><g class="layer nodes"><g class="node" transform="translate(337.9488305236624,-6.485473907328085)"><circle class="outline" cx="0" cy="0" r="25" fill="#8DCC93" stroke="#5db665" stroke-width="2px"/><text text-anchor="middle" pointer-events="none" font-family="sans-serif" dy="1.5625" font-size="25" fill="#604A0E"/><text text-anchor="middle" pointer-events="none" y="5" font-size="10px" fill="#604A0E" font-family="sans-serif"> ACE2</text></g><g class="node" transform="translate(38.80284169111087,-44.7151966140055)"><circle class="outline" cx="0" cy="0" r="25" fill="#F79767" stroke="#f36924" stroke-width="2px"/><text text-anchor="middle" pointer-events="none" font-family="sans-serif" dy="1.5625" font-size="25" fill="#FFFFFF"/><text text-anchor="middle" pointer-events="none" y="5" font-size="10px" fill="#FFFFFF" font-family="sans-serif"> SARS-C…</text></g><g class="node" transform="translate(-90.66192140205979,-21.52220894014683)"><circle class="outline" cx="0" cy="0" r="25" fill="#A5ABB6" stroke="#9AA1AC" stroke-width="2px"/><text text-anchor="middle" pointer-events="none" font-family="sans-serif" dy="1.5625" font-size="25" fill="#FFFFFF"/><text text-anchor="middle" pointer-events="none" y="5" font-size="10px" fill="#FFFFFF" font-family="sans-serif"> praziqua…</text></g><g class="node" transform="translate(158.08971133735952,-3.884085222898773)"><circle class="outline" cx="0" cy="0" r="25" fill="#F16667" stroke="#eb2728" stroke-width="2px"/><text text-anchor="middle" pointer-events="none" font-family="sans-serif" dy="1.5625" font-size="25" fill="#FFFFFF"/><text text-anchor="middle" pointer-events="none" y="5" font-size="10px" fill="#FFFFFF" font-family="sans-serif"> Spike</text></g><g class="node" transform="translate(277.55947919792146,-62.612509870489504)"><circle class="outline" cx="0" cy="0" r="25" fill="#A5ABB6" stroke="#9AA1AC" stroke-width="2px"/><text text-anchor="middle" pointer-events="none" font-family="sans-serif" dy="1.5625" font-size="25" fill="#FFFFFF"/><text text-anchor="middle" pointer-events="none" y="5" font-size="10px" fill="#FFFFFF" font-family="sans-serif"> monoclo…</text></g><g class="node" transform="translate(186.27905113897575,-95.12044188305923)"><circle class="outline" cx="0" cy="0" r="25" fill="#F79767" stroke="#f36924" stroke-width="2px"/><text text-anchor="middle" pointer-events="none" font-family="sans-serif" dy="1.5625" font-size="25" fill="#FFFFFF"/><text text-anchor="middle" pointer-events="none" y="5" font-size="10px" fill="#FFFFFF" font-family="sans-serif"> SARS-C…</text></g><g class="node" transform="translate(140.70459190558384,154.13867622864967)"><circle class="outline" cx="0" cy="0" r="25" fill="#A5ABB6" stroke="#9AA1AC" stroke-width="2px"/><text text-anchor="middle" pointer-events="none" font-family="sans-serif" dy="1.5625" font-size="25" fill="#FFFFFF"/><text text-anchor="middle" pointer-events="none" font-family="sans-serif" dy="1.5625" font-size="25" fill="#FFFFFF"/><text text-anchor="middle" pointer-events="none" y="0" font-size="10px" fill="#FFFFFF" font-family="sans-serif"> antibody</text><text text-anchor="middle" pointer-events="none" y="10" font-size="10px" fill="#FFFFFF" font-family="sans-serif"> m396</text></g><g class="node" transform="translate(-63.67487543731968,53.03557662355445)"><circle class="outline" cx="0" cy="0" r="25" fill="#A5ABB6" stroke="#9AA1AC" stroke-width="2px"/><text text-anchor="middle" pointer-events="none" font-family="sans-serif" dy="1.5625" font-size="25" fill="#FFFFFF"/><text text-anchor="middle" pointer-events="none" y="5" font-size="10px" fill="#FFFFFF" font-family="sans-serif"> peramp…</text></g><g class="node" transform="translate(94.7081128848115,-121.55534077672826)"><circle class="outline" cx="0" cy="0" r="25" fill="#A5ABB6" stroke="#9AA1AC" stroke-width="2px"/><text text-anchor="middle" pointer-events="none" font-family="sans-serif" dy="1.5625" font-size="25" fill="#FFFFFF"/><text text-anchor="middle" pointer-events="none" y="5" font-size="10px" fill="#FFFFFF" font-family="sans-serif"> SARS-C…</text></g><g class="node" transform="translate(34.72283675633402,60.62512653392611)"><circle class="outline" cx="0" cy="0" r="25" fill="#A5ABB6" stroke="#9AA1AC" stroke-width="2px"/><text text-anchor="middle" pointer-events="none" font-family="sans-serif" dy="1.5625" font-size="25" fill="#FFFFFF"/><text text-anchor="middle" pointer-events="none" y="5" font-size="10px" fill="#FFFFFF" font-family="sans-serif"> CR3022</text></g><g class="node" transform="translate(129.3642965334569,48.71957511567641)"><circle class="outline" cx="0" cy="0" r="25" fill="#A5ABB6" stroke="#9AA1AC" stroke-width="2px"/><text text-anchor="middle" pointer-events="none" font-family="sans-serif" dy="1.5625" font-size="25" fill="#FFFFFF"/><text text-anchor="middle" pointer-events="none" y="5" font-size="10px" fill="#FFFFFF" font-family="sans-serif"> Sofosbu…</text></g><g class="node" transform="translate(248.32032090160095,82.54388677257404)"><circle class="outline" cx="0" cy="0" r="25" fill="#F79767" stroke="#f36924" stroke-width="2px"/><text text-anchor="middle" pointer-events="none" font-family="sans-serif" dy="1.5625" font-size="25" fill="#FFFFFF"/><text text-anchor="middle" pointer-events="none" y="5" font-size="10px" fill="#FFFFFF" font-family="sans-serif"> Coronav…</text></g><g class="node" transform="translate(217.75137288168955,-11.319830991875362)"><circle class="outline" cx="0" cy="0" r="25" fill="#F79767" stroke="#f36924" stroke-width="2px"/><text text-anchor="middle" pointer-events="none" font-family="sans-serif" dy="1.5625" font-size="25" fill="#FFFFFF"/><text text-anchor="middle" pointer-events="none" y="5" font-size="10px" fill="#FFFFFF" font-family="sans-serif"> MERS-…</text></g><g class="node" transform="translate(94.42865524503942,97.43074765366427)"><circle class="outline" cx="0" cy="0" r="25" fill="#A5ABB6" stroke="#9AA1AC" stroke-width="2px"/><text text-anchor="middle" pointer-events="none" font-family="sans-serif" dy="1.5625" font-size="25" fill="#FFFFFF"/><text text-anchor="middle" pointer-events="none" y="5" font-size="10px" fill="#FFFFFF" font-family="sans-serif"> nelfinavir</text></g><g class="node" transform="translate(211.94814301849075,140.06477311003277)"><circle class="outline" cx="0" cy="0" r="25" fill="#A5ABB6" stroke="#9AA1AC" stroke-width="2px"/><text text-anchor="middle" pointer-events="none" font-family="sans-serif" dy="1.5625" font-size="25" fill="#FFFFFF"/><text text-anchor="middle" pointer-events="none" y="5" font-size="10px" fill="#FFFFFF" font-family="sans-serif"> MERS-…</text></g><g class="node" transform="translate(-66.89415278965144,-109.17268802537566)"><circle class="outline" cx="0" cy="0" r="25" fill="#A5ABB6" stroke="#9AA1AC" stroke-width="2px"/><text text-anchor="middle" pointer-events="none" font-family="sans-serif" dy="1.5625" font-size="25" fill="#FFFFFF"/><text text-anchor="middle" pointer-events="none" y="5" font-size="10px" fill="#FFFFFF" font-family="sans-serif"> pitavast…</text></g><g class="node" transform="translate(217.37577427846924,-208.50689793539098)"><circle class="outline" cx="0" cy="0" r="25" fill="#A5ABB6" stroke="#9AA1AC" stroke-width="2px"/><text text-anchor="middle" pointer-events="none" font-family="sans-serif" dy="1.5625" font-size="25" fill="#FFFFFF"/><text text-anchor="middle" pointer-events="none" y="5" font-size="10px" fill="#FFFFFF" font-family="sans-serif"> neutraliz…</text></g></g></svg>