<svg xmlns="http://www.w3.org/2000/svg" width="486.80926513671875" height="420.3953857421875" viewBox="-119.86042785644531 -237.4578857421875 486.80926513671875 420.3953857421875"><title>Neo4j Graph Visualization</title><desc>Created using Neo4j (http://www.neo4j.com/)</desc><g class="layer relationships"><g class="relationship" transform="translate(38.80284169111087 -44.7151966140055) rotate(370.609217890079)"><path class="outline" fill="#D9C8AE" stroke="none" d="M 25 0.5 L 69.01306393305065 0.5 L 69.01306393305065 -0.5 L 25 -0.5 Z M 106.12243893305065 0.5 L 150.1355028661013 0.5 L 150.1355028661013 3.5 L 157.1355028661013 0 L 150.1355028661013 -3.5 L 150.1355028661013 -0.5 L 106.12243893305065 -0.5 Z"/><text text-anchor="middle" pointer-events="none" font-size="8px" fill="#000000" x="87.56775143305065" y="3" font-family="sans-serif">similarity</text></g><g class="relationship" transform="translate(38.80284169111087 -44.7151966140055) rotate(341.17706978606543)"><path class="outline" fill="#D9C8AE" stroke="none" d="M 24.018736134675446,-6.953439040707552 L 24.277555179777966,-5.987513214418485 A 202.50554325173238 202.50554325173238 0 0 1 55.96232962237066,-11.824143594450618 L 55.85997431615555,-12.818891497836006 A 203.50554325173238 203.50554325173238 0 0 0 24.018736134675446,-6.953439040707552 Z M 93.006672344723,-13.232536005848914 L 92.92649356643597,-12.235755506685535 A 202.50554325173238 202.50554325173238 0 0 1 124.73338197496832,-7.1061321834522815 L 124.02164537717425,-4.1917830253450195 L 131.65215277685095,-5.931138314950647 L 125.68236410536042,-10.991931060928632 L 124.97062750756635,-8.07758190282137 A 203.50554325173238 203.50554325173238 0 0 0 93.006672344723,-13.232536005848914"/><text text-anchor="middle" pointer-events="none" font-size="8px" fill="#000000" x="74.42943234827098" y="-10.375137319278906" font-family="sans-serif">similarity</text></g><g class="relationship" transform="translate(38.80284169111087 -44.7151966140055) rotate(367.28270775760507)"><path class="outline" fill="#D9C8AE" stroke="none" d="M 25 0.5 L 100.70937304187913 0.5 L 100.70937304187913 -0.5 L 25 -0.5 Z M 193.86952929187913 0.5 L 269.57890233375826 0.5 L 269.57890233375826 3.5 L 276.57890233375826 0 L 269.57890233375826 -3.5 L 269.57890233375826 -0.5 L 193.86952929187913 -0.5 Z"/><text text-anchor="middle" pointer-events="none" font-size="8px" fill="#000000" x="147.28945116687913" y="3" font-family="sans-serif">virus_protein_interaction</text></g><g class="relationship" transform="translate(38.80284169111087 -44.7151966140055) rotate(378.81271036564084)"><path class="outline" fill="#D9C8AE" stroke="none" d="M 25 0.5 L 42.092736638191965 0.5 L 42.092736638191965 -0.5 L 25 -0.5 Z M 77.00289288819197 0.5 L 94.09562952638393 0.5 L 94.09562952638393 3.5 L 101.09562952638393 0 L 94.09562952638393 -3.5 L 94.09562952638393 -0.5 L 77.00289288819197 -0.5 Z"/><text text-anchor="middle" pointer-events="none" font-size="8px" fill="#000000" x="59.547814763191965" y="3" font-family="sans-serif">produce</text></g><g class="relationship" transform="translate(-90.86041935634954 -21.39123088135312) rotate(349.8026269243029)"><path class="outline" fill="#D9C8AE" stroke="none" d="M 25 0.5 L 49.661227795669106 0.5 L 49.661227795669106 -0.5 L 25 -0.5 Z M 75.0831027956691 0.5 L 99.74433059133821 0.5 L 99.74433059133821 3.5 L 106.74433059133821 0 L 99.74433059133821 -3.5 L 99.74433059133821 -0.5 L 75.0831027956691 -0.5 Z"/><text text-anchor="middle" pointer-events="none" font-size="8px" fill="#000000" x="62.372165295669106" y="3" font-family="sans-serif">effect</text></g><g class="relationship" transform="translate(158.16215848540386 -4.0524214989856855) rotate(359.2246637447206)"><path class="outline" fill="#D9C8AE" stroke="none" d="M 25 0.5 L 70.50117663972304 0.5 L 70.50117663972304 -0.5 L 25 -0.5 Z M 102.30195788972304 0.5 L 147.80313452944608 0.5 L 147.80313452944608 3.5 L 154.80313452944608 0 L 147.80313452944608 -3.5 L 147.80313452944608 -0.5 L 102.30195788972304 -0.5 Z"/><text text-anchor="middle" pointer-events="none" font-size="8px" fill="#000000" x="86.40156726472304" y="3" font-family="sans-serif">binding</text></g><g class="relationship" transform="translate(277.6581717240989 -62.465980796736154) rotate(513.9491028996473)"><path class="outline" fill="#D9C8AE" stroke="none" d="M 25 0.5 L 49.7760727313198 0.5 L 49.7760727313198 -0.5 L 25 -0.5 Z M 76.2331039813198 0.5 L 101.0091767126396 0.5 L 101.0091767126396 3.5 L 108.0091767126396 0 L 101.0091767126396 -3.5 L 101.0091767126396 -0.5 L 76.2331039813198 -0.5 Z"/><text text-anchor="middle" pointer-events="none" font-size="8px" fill="#000000" x="63.0045883563198" y="3" transform="rotate(180 63.0045883563198 0)" font-family="sans-serif">target</text></g><g class="relationship" transform="translate(277.6581717240989 -62.465980796736154) rotate(199.6372751166178)"><path class="outline" fill="#D9C8AE" stroke="none" d="M 25 0.5 L 32.234967299983566 0.5 L 32.234967299983566 -0.5 L 25 -0.5 Z M 57.656842299983566 0.5 L 64.89180959996713 0.5 L 64.89180959996713 3.5 L 71.89180959996713 0 L 64.89180959996713 -3.5 L 64.89180959996713 -0.5 L 57.656842299983566 -0.5 Z"/><text text-anchor="middle" pointer-events="none" font-size="8px" fill="#000000" x="44.945904799983566" y="3" transform="rotate(180 44.945904799983566 0)" font-family="sans-serif">effect</text></g><g class="relationship" transform="translate(186.4016849632584 -95.02786636291344) rotate(521.1770697860654)"><path class="outline" fill="#D9C8AE" stroke="none" d="M 24.018736134675446,-6.953439040707552 L 24.277555179777966,-5.987513214418485 A 202.50554325173238 202.50554325173238 0 0 1 55.96232962237066,-11.824143594450618 L 55.85997431615555,-12.818891497836006 A 203.50554325173238 203.50554325173238 0 0 0 24.018736134675446,-6.953439040707552 Z M 93.006672344723,-13.232536005848914 L 92.92649356643597,-12.235755506685535 A 202.50554325173238 202.50554325173238 0 0 1 124.73338197496832,-7.1061321834522815 L 124.02164537717425,-4.1917830253450195 L 131.65215277685095,-5.931138314950647 L 125.68236410536042,-10.991931060928632 L 124.97062750756635,-8.07758190282137 A 203.50554325173238 203.50554325173238 0 0 0 93.006672344723,-13.232536005848914"/><text text-anchor="middle" pointer-events="none" font-size="8px" fill="#000000" x="74.42943234827098" y="-10.375137319278906" transform="rotate(180 74.42943234827098 -13.375137319278906)" font-family="sans-serif">similarity</text></g><g class="relationship" transform="translate(186.4016849632584 -95.02786636291344) rotate(429.4552729283521)"><path class="outline" fill="#D9C8AE" stroke="none" d="M 25 0.5 L 26.272177377496035 0.5 L 26.272177377496035 -0.5 L 25 -0.5 Z M 56.268271127496035 0.5 L 57.54044850499207 0.5 L 57.54044850499207 3.5 L 64.54044850499207 0 L 57.54044850499207 -3.5 L 57.54044850499207 -0.5 L 56.268271127496035 -0.5 Z"/><text text-anchor="middle" pointer-events="none" font-size="8px" fill="#000000" x="41.270224252496035" y="3" font-family="sans-serif">simil…</text></g><g class="relationship" transform="translate(186.4016849632584 -95.02786636291344) rotate(390.29588243400707)"><path class="outline" fill="#D9C8AE" stroke="none" d="M 25 0.5 L 37.67852912988012 0.5 L 37.67852912988012 -0.5 L 25 -0.5 Z M 130.83868537988013 0.5 L 143.51721450976024 0.5 L 143.51721450976024 3.5 L 150.51721450976024 0 L 143.51721450976024 -3.5 L 143.51721450976024 -0.5 L 130.83868537988013 -0.5 Z"/><text text-anchor="middle" pointer-events="none" font-size="8px" fill="#000000" x="84.25860725488012" y="3" font-family="sans-serif">virus_protein_interaction</text></g><g class="relationship" transform="translate(186.4016849632584 -95.02786636291344) rotate(467.2447726963354)"><path class="outline" fill="#D9C8AE" stroke="none" d="M 25 0.5 L 26.673701052832726 0.5 L 26.673701052832726 -0.5 L 25 -0.5 Z M 61.583857302832726 0.5 L 63.25755835566545 0.5 L 63.25755835566545 3.5 L 70.25755835566545 0 L 63.25755835566545 -3.5 L 63.25755835566545 -0.5 L 61.583857302832726 -0.5 Z"/><text text-anchor="middle" pointer-events="none" font-size="8px" fill="#000000" x="44.128779177832726" y="3" transform="rotate(180 44.128779177832726 0)" font-family="sans-serif">produce</text></g><g class="relationship" transform="translate(140.74895913441958 153.9375038309199) rotate(276.28959125089125)"><path class="outline" fill="#D9C8AE" stroke="none" d="M 25 0.5 L 62.74480697036256 0.5 L 62.74480697036256 -0.5 L 25 -0.5 Z M 89.20183822036256 0.5 L 126.94664519072512 0.5 L 126.94664519072512 3.5 L 133.94664519072512 0 L 126.94664519072512 -3.5 L 126.94664519072512 -0.5 L 89.20183822036256 -0.5 Z"/><text text-anchor="middle" pointer-events="none" font-size="8px" fill="#000000" x="75.97332259536256" y="3" font-family="sans-serif">target</text></g><g class="relationship" transform="translate(-63.76493026686618 53.121997858430724) rotate(316.3522209785758)"><path class="outline" fill="#D9C8AE" stroke="none" d="M 25 0.5 L 54.66265501981813 0.5 L 54.66265501981813 -0.5 L 25 -0.5 Z M 80.08453001981813 0.5 L 109.74718503963626 0.5 L 109.74718503963626 3.5 L 116.74718503963626 0 L 109.74718503963626 -3.5 L 109.74718503963626 -0.5 L 80.08453001981813 -0.5 Z"/><text text-anchor="middle" pointer-events="none" font-size="8px" fill="#000000" x="67.37359251981813" y="3" font-family="sans-serif">effect</text></g><g class="relationship" transform="translate(94.75340588835132 -121.4896330543912) rotate(486.08327641284905)"><path class="outline" fill="#D9C8AE" stroke="none" d="M 25 0.5 L 31.288482824695407 0.5 L 31.288482824695407 -0.5 L 25 -0.5 Z M 56.71035782469541 0.5 L 62.998840649390814 0.5 L 62.998840649390814 3.5 L 69.99884064939081 0 L 62.998840649390814 -3.5 L 62.998840649390814 -0.5 L 56.71035782469541 -0.5 Z"/><text text-anchor="middle" pointer-events="none" font-size="8px" fill="#000000" x="43.99942032469541" y="3" transform="rotate(180 43.99942032469541 0)" font-family="sans-serif">effect</text></g><g class="relationship" transform="translate(94.75340588835132 -121.4896330543912) rotate(421.63372698513143)"><path class="outline" fill="#D9C8AE" stroke="none" d="M 25 0.5 L 50.002602610466596 0.5 L 50.002602610466596 -0.5 L 25 -0.5 Z M 76.4596338604666 0.5 L 101.46223647093319 0.5 L 101.46223647093319 3.5 L 108.46223647093319 0 L 101.46223647093319 -3.5 L 101.46223647093319 -0.5 L 76.4596338604666 -0.5 Z"/><text text-anchor="middle" pointer-events="none" font-size="8px" fill="#000000" x="63.231118235466596" y="3" font-family="sans-serif">target</text></g><g class="relationship" transform="translate(94.75340588835132 -121.4896330543912) rotate(376.10510724954787)"><path class="outline" fill="#D9C8AE" stroke="none" d="M 25 0.5 L 31.485058542189563 0.5 L 31.485058542189563 -0.5 L 25 -0.5 Z M 56.90693354218956 0.5 L 63.391992084379126 0.5 L 63.391992084379126 3.5 L 70.39199208437913 0 L 63.391992084379126 -3.5 L 63.391992084379126 -0.5 L 56.90693354218956 -0.5 Z"/><text text-anchor="middle" pointer-events="none" font-size="8px" fill="#000000" x="44.19599604218956" y="3" font-family="sans-serif">effect</text></g><g class="relationship" transform="translate(34.78114127646057 60.53516315925255) rotate(272.18825297108003)"><path class="outline" fill="#D9C8AE" stroke="none" d="M 25 0.5 L 36.45264647086514 0.5 L 36.45264647086514 -0.5 L 25 -0.5 Z M 61.87452147086514 0.5 L 73.32716794173028 0.5 L 73.32716794173028 3.5 L 80.32716794173028 0 L 73.32716794173028 -3.5 L 73.32716794173028 -0.5 L 61.87452147086514 -0.5 Z"/><text text-anchor="middle" pointer-events="none" font-size="8px" fill="#000000" x="49.16358397086514" y="3" font-family="sans-serif">effect</text></g><g class="relationship" transform="translate(34.78114127646057 60.53516315925255) rotate(332.3688092649156)"><path class="outline" fill="#D9C8AE" stroke="none" d="M 25 0.5 L 52.903430167679545 0.5 L 52.903430167679545 -0.5 L 25 -0.5 Z M 79.36046141767955 0.5 L 107.26389158535909 0.5 L 107.26389158535909 3.5 L 114.26389158535909 0 L 107.26389158535909 -3.5 L 107.26389158535909 -0.5 L 79.36046141767955 -0.5 Z"/><text text-anchor="middle" pointer-events="none" font-size="8px" fill="#000000" x="66.13194579267955" y="3" font-family="sans-serif">target</text></g><g class="relationship" transform="translate(129.27745922512509 48.48697998290846) rotate(225.85076690121144)"><path class="outline" fill="#D9C8AE" stroke="none" d="M 25 0.5 L 48.735775542941 0.5 L 48.735775542941 -0.5 L 25 -0.5 Z M 74.157650542941 0.5 L 97.893426085882 0.5 L 97.893426085882 3.5 L 104.893426085882 0 L 97.893426085882 -3.5 L 97.893426085882 -0.5 L 74.157650542941 -0.5 Z"/><text text-anchor="middle" pointer-events="none" font-size="8px" fill="#000000" x="61.446713042941" y="3" transform="rotate(180 61.446713042941 0)" font-family="sans-serif">effect</text></g><g class="relationship" transform="translate(129.27745922512509 48.48697998290846) rotate(375.92042257528226)"><path class="outline" fill="#D9C8AE" stroke="none" d="M 25 0.5 L 45.727170910558584 0.5 L 45.727170910558584 -0.5 L 25 -0.5 Z M 71.14904591055858 0.5 L 91.87621682111717 0.5 L 91.87621682111717 3.5 L 98.87621682111717 0 L 91.87621682111717 -3.5 L 91.87621682111717 -0.5 L 71.14904591055858 -0.5 Z"/><text text-anchor="middle" pointer-events="none" font-size="8px" fill="#000000" x="58.438108410558584" y="3" font-family="sans-serif">effect</text></g><g class="relationship" transform="translate(129.27745922512509 48.48697998290846) rotate(326.0252155991209)"><path class="outline" fill="#D9C8AE" stroke="none" d="M 25 0.5 L 37.17695963048323 0.5 L 37.17695963048323 -0.5 L 25 -0.5 Z M 62.59883463048323 0.5 L 74.77579426096646 0.5 L 74.77579426096646 3.5 L 81.77579426096646 0 L 74.77579426096646 -3.5 L 74.77579426096646 -0.5 L 62.59883463048323 -0.5 Z"/><text text-anchor="middle" pointer-events="none" font-size="8px" fill="#000000" x="49.88789713048323" y="3" font-family="sans-serif">effect</text></g><g class="relationship" transform="translate(248.4022300891416 82.4664746893928) rotate(251.917573217812)"><path class="outline" fill="#D9C8AE" stroke="none" d="M 25 0.5 L 27.202474526821895 0.5 L 27.202474526821895 -0.5 L 25 -0.5 Z M 64.3118495268219 0.5 L 66.51432405364379 0.5 L 66.51432405364379 3.5 L 73.51432405364379 0 L 66.51432405364379 -3.5 L 66.51432405364379 -0.5 L 64.3118495268219 -0.5 Z"/><text text-anchor="middle" pointer-events="none" font-size="8px" fill="#000000" x="45.757162026821895" y="3" transform="rotate(180 45.757162026821895 0)" font-family="sans-serif">similarity</text></g><g class="relationship" transform="translate(248.4022300891416 82.4664746893928) rotate(315.1908750223905)"><path class="outline" fill="#D9C8AE" stroke="none" d="M 25 0.5 L 26.595445549769536 0.5 L 26.595445549769536 -0.5 L 25 -0.5 Z M 92.62278929976954 0.5 L 94.21823484953907 0.5 L 94.21823484953907 3.5 L 101.21823484953907 0 L 94.21823484953907 -3.5 L 94.21823484953907 -0.5 L 92.62278929976954 -0.5 Z"/><text text-anchor="middle" pointer-events="none" font-size="8px" fill="#000000" x="59.609117424769536" y="3" font-family="sans-serif">virus_protein_i…</text></g><g class="relationship" transform="translate(248.4022300891416 82.4664746893928) rotate(223.79397260880074)"><path class="outline" fill="#D9C8AE" stroke="none" d="M 25 0.5 L 41.55250125683002 0.5 L 41.55250125683002 -0.5 L 25 -0.5 Z M 76.46265750683003 0.5 L 93.01515876366004 0.5 L 93.01515876366004 3.5 L 100.01515876366004 0 L 93.01515876366004 -3.5 L 93.01515876366004 -0.5 L 76.46265750683003 -0.5 Z"/><text text-anchor="middle" pointer-events="none" font-size="8px" fill="#000000" x="59.00757938183002" y="3" transform="rotate(180 59.00757938183002 0)" font-family="sans-serif">produce</text></g><g class="relationship" transform="translate(217.82487325656092 -11.182322915698611) rotate(533.1852734813095)"><path class="outline" fill="#D9C8AE" stroke="none" d="M 25 0.5 L 26.54361424694309 0.5 L 26.54361424694309 -0.5 L 25 -0.5 Z M 26.54361424694309 0.5 L 28.08722849388618 0.5 L 28.08722849388618 3.5 L 35.08722849388618 0 L 28.08722849388618 -3.5 L 28.08722849388618 -0.5 L 26.54361424694309 -0.5 Z"/><text text-anchor="middle" pointer-events="none" font-size="8px" fill="#000000" x="26.54361424694309" y="3" transform="rotate(180 26.54361424694309 0)" font-family="sans-serif"/></g><g class="relationship" transform="translate(217.82487325656092 -11.182322915698611) rotate(362.23912546400305)"><path class="outline" fill="#D9C8AE" stroke="none" d="M 25 0.5 L 26.707482195696002 0.5 L 26.707482195696002 -0.5 L 25 -0.5 Z M 86.508263445696 0.5 L 88.215745641392 0.5 L 88.215745641392 3.5 L 95.215745641392 0 L 88.215745641392 -3.5 L 88.215745641392 -0.5 L 86.508263445696 -0.5 Z"/><text text-anchor="middle" pointer-events="none" font-size="8px" fill="#000000" x="56.607872820696" y="3" font-family="sans-serif">virus_protein…</text></g><g class="relationship" transform="translate(94.44174643964821 97.29168824411433) rotate(248.60454167487273)"><path class="outline" fill="#D9C8AE" stroke="none" d="M 25 0.5 L 60.0479030837712 0.5 L 60.0479030837712 -0.5 L 25 -0.5 Z M 85.4697780837712 0.5 L 120.5176811675424 0.5 L 120.5176811675424 3.5 L 127.5176811675424 0 L 120.5176811675424 -3.5 L 120.5176811675424 -0.5 L 85.4697780837712 -0.5 Z"/><text text-anchor="middle" pointer-events="none" font-size="8px" fill="#000000" x="72.7588405837712" y="3" transform="rotate(180 72.7588405837712 0)" font-family="sans-serif">effect</text></g><g class="relationship" transform="translate(94.44174643964821 97.29168824411433) rotate(354.4998137470085)"><path class="outline" fill="#D9C8AE" stroke="none" d="M 25 0.5 L 61.12536943686021 0.5 L 61.12536943686021 -0.5 L 25 -0.5 Z M 86.54724443686021 0.5 L 122.67261387372042 0.5 L 122.67261387372042 3.5 L 129.67261387372042 0 L 122.67261387372042 -3.5 L 122.67261387372042 -0.5 L 86.54724443686021 -0.5 Z"/><text text-anchor="middle" pointer-events="none" font-size="8px" fill="#000000" x="73.83630693686021" y="3" font-family="sans-serif">effect</text></g><g class="relationship" transform="translate(211.90696346808951 139.86259449206906) rotate(249.52194395182175)"><path class="outline" fill="#D9C8AE" stroke="none" d="M 25 0.5 L 60.0830002602051 0.5 L 60.0830002602051 -0.5 L 25 -0.5 Z M 86.5400315102051 0.5 L 121.6230317704102 0.5 L 121.6230317704102 3.5 L 128.6230317704102 0 L 121.6230317704102 -3.5 L 121.6230317704102 -0.5 L 86.5400315102051 -0.5 Z"/><text text-anchor="middle" pointer-events="none" font-size="8px" fill="#000000" x="73.3115158852051" y="3" transform="rotate(180 73.3115158852051 0)" font-family="sans-serif">target</text></g><g class="relationship" transform="translate(-67.17634023112683 -109.11655576089106) rotate(391.28618550725054)"><path class="outline" fill="#D9C8AE" stroke="none" d="M 25 0.5 L 45.795356658079015 0.5 L 45.795356658079015 -0.5 L 25 -0.5 Z M 71.21723165807902 0.5 L 92.01258831615803 0.5 L 92.01258831615803 3.5 L 99.01258831615803 0 L 92.01258831615803 -3.5 L 92.01258831615803 -0.5 L 71.21723165807902 -0.5 Z"/><text text-anchor="middle" pointer-events="none" font-size="8px" fill="#000000" x="58.506294158079015" y="3" font-family="sans-serif">effect</text></g><g class="relationship" transform="translate(217.40653362506748 -208.45787997261584) rotate(465.2877375498613)"><path class="outline" fill="#D9C8AE" stroke="none" d="M 25 0.5 L 42.58461638811078 0.5 L 42.58461638811078 -0.5 L 25 -0.5 Z M 68.00649138811079 0.5 L 85.59110777622156 0.5 L 85.59110777622156 3.5 L 92.59110777622156 0 L 85.59110777622156 -3.5 L 85.59110777622156 -0.5 L 68.00649138811079 -0.5 Z"/><text text-anchor="middle" pointer-events="none" font-size="8px" fill="#000000" x="55.29555388811078" y="3" transform="rotate(180 55.29555388811078 0)" font-family="sans-serif">effect</text></g></g><g class="layer nodes"><g class="node" transform="translate(337.9488305236624,-6.485473907328085)"><circle class="outline" cx="0" cy="0" r="25" fill="#8DCC93" stroke="#5db665" stroke-width="2px"/><text text-anchor="middle" pointer-events="none" font-family="sans-serif" dy="1.5625" font-size="25" fill="#604A0E"/><text text-anchor="middle" pointer-events="none" y="5" font-size="10px" fill="#604A0E" font-family="sans-serif"> ACE2</text></g><g class="node" transform="translate(38.80284169111087,-44.7151966140055)"><circle class="outline" cx="0" cy="0" r="25" fill="#F79767" stroke="#f36924" stroke-width="2px"/><text text-anchor="middle" pointer-events="none" font-family="sans-serif" dy="1.5625" font-size="25" fill="#FFFFFF"/><text text-anchor="middle" pointer-events="none" y="5" font-size="10px" fill="#FFFFFF" font-family="sans-serif"> SARS-C…</text></g><g class="node" transform="translate(-90.86041935634954,-21.39123088135312)"><circle class="outline" cx="0" cy="0" r="25" fill="#A5ABB6" stroke="#9AA1AC" stroke-width="2px"/><text text-anchor="middle" pointer-events="none" font-family="sans-serif" dy="1.5625" font-size="25" fill="#FFFFFF"/><text text-anchor="middle" pointer-events="none" y="5" font-size="10px" fill="#FFFFFF" font-family="sans-serif"> praziqua…</text></g><g class="node" transform="translate(158.16215848540386,-4.0524214989856855)"><circle class="outline" cx="0" cy="0" r="25" fill="#F16667" stroke="#eb2728" stroke-width="2px"/><text text-anchor="middle" pointer-events="none" font-family="sans-serif" dy="1.5625" font-size="25" fill="#FFFFFF"/><text text-anchor="middle" pointer-events="none" y="5" font-size="10px" fill="#FFFFFF" font-family="sans-serif"> Spike</text></g><g class="node" transform="translate(277.6581717240989,-62.465980796736154)"><circle class="outline" cx="0" cy="0" r="25" fill="#A5ABB6" stroke="#9AA1AC" stroke-width="2px"/><text text-anchor="middle" pointer-events="none" font-family="sans-serif" dy="1.5625" font-size="25" fill="#FFFFFF"/><text text-anchor="middle" pointer-events="none" y="5" font-size="10px" fill="#FFFFFF" font-family="sans-serif"> monoclo…</text></g><g class="node" transform="translate(186.4016849632584,-95.02786636291344)"><circle class="outline" cx="0" cy="0" r="25" fill="#F79767" stroke="#f36924" stroke-width="2px"/><text text-anchor="middle" pointer-events="none" font-family="sans-serif" dy="1.5625" font-size="25" fill="#FFFFFF"/><text text-anchor="middle" pointer-events="none" y="5" font-size="10px" fill="#FFFFFF" font-family="sans-serif"> SARS-C…</text></g><g class="node" transform="translate(140.74895913441958,153.9375038309199)"><circle class="outline" cx="0" cy="0" r="25" fill="#A5ABB6" stroke="#9AA1AC" stroke-width="2px"/><text text-anchor="middle" pointer-events="none" font-family="sans-serif" dy="1.5625" font-size="25" fill="#FFFFFF"/><text text-anchor="middle" pointer-events="none" font-family="sans-serif" dy="1.5625" font-size="25" fill="#FFFFFF"/><text text-anchor="middle" pointer-events="none" y="0" font-size="10px" fill="#FFFFFF" font-family="sans-serif"> antibody</text><text text-anchor="middle" pointer-events="none" y="10" font-size="10px" fill="#FFFFFF" font-family="sans-serif"> m396</text></g><g class="node" transform="translate(-63.76493026686618,53.121997858430724)"><circle class="outline" cx="0" cy="0" r="25" fill="#A5ABB6" stroke="#9AA1AC" stroke-width="2px"/><text text-anchor="middle" pointer-events="none" font-family="sans-serif" dy="1.5625" font-size="25" fill="#FFFFFF"/><text text-anchor="middle" pointer-events="none" y="5" font-size="10px" fill="#FFFFFF" font-family="sans-serif"> peramp…</text></g><g class="node" transform="translate(94.75340588835132,-121.4896330543912)"><circle class="outline" cx="0" cy="0" r="25" fill="#A5ABB6" stroke="#9AA1AC" stroke-width="2px"/><text text-anchor="middle" pointer-events="none" font-family="sans-serif" dy="1.5625" font-size="25" fill="#FFFFFF"/><text text-anchor="middle" pointer-events="none" y="5" font-size="10px" fill="#FFFFFF" font-family="sans-serif"> SARS-C…</text></g><g class="node" transform="translate(34.78114127646057,60.53516315925255)"><circle class="outline" cx="0" cy="0" r="25" fill="#A5ABB6" stroke="#9AA1AC" stroke-width="2px"/><text text-anchor="middle" pointer-events="none" font-family="sans-serif" dy="1.5625" font-size="25" fill="#FFFFFF"/><text text-anchor="middle" pointer-events="none" y="5" font-size="10px" fill="#FFFFFF" font-family="sans-serif"> CR3022</text></g><g class="node" transform="translate(129.27745922512509,48.48697998290846)"><circle class="outline" cx="0" cy="0" r="25" fill="#A5ABB6" stroke="#9AA1AC" stroke-width="2px"/><text text-anchor="middle" pointer-events="none" font-family="sans-serif" dy="1.5625" font-size="25" fill="#FFFFFF"/><text text-anchor="middle" pointer-events="none" y="5" font-size="10px" fill="#FFFFFF" font-family="sans-serif"> Sofosbu…</text></g><g class="node" transform="translate(248.4022300891416,82.4664746893928)"><circle class="outline" cx="0" cy="0" r="25" fill="#F79767" stroke="#f36924" stroke-width="2px"/><text text-anchor="middle" pointer-events="none" font-family="sans-serif" dy="1.5625" font-size="25" fill="#FFFFFF"/><text text-anchor="middle" pointer-events="none" y="5" font-size="10px" fill="#FFFFFF" font-family="sans-serif"> Coronav…</text></g><g class="node" transform="translate(217.82487325656092,-11.182322915698611)"><circle class="outline" cx="0" cy="0" r="25" fill="#F79767" stroke="#f36924" stroke-width="2px"/><text text-anchor="middle" pointer-events="none" font-family="sans-serif" dy="1.5625" font-size="25" fill="#FFFFFF"/><text text-anchor="middle" pointer-events="none" y="5" font-size="10px" fill="#FFFFFF" font-family="sans-serif"> MERS-…</text></g><g class="node" transform="translate(94.44174643964821,97.29168824411433)"><circle class="outline" cx="0" cy="0" r="25" fill="#A5ABB6" stroke="#9AA1AC" stroke-width="2px"/><text text-anchor="middle" pointer-events="none" font-family="sans-serif" dy="1.5625" font-size="25" fill="#FFFFFF"/><text text-anchor="middle" pointer-events="none" y="5" font-size="10px" fill="#FFFFFF" font-family="sans-serif"> nelfinavir</text></g><g class="node" transform="translate(211.90696346808951,139.86259449206906)"><circle class="outline" cx="0" cy="0" r="25" fill="#A5ABB6" stroke="#9AA1AC" stroke-width="2px"/><text text-anchor="middle" pointer-events="none" font-family="sans-serif" dy="1.5625" font-size="25" fill="#FFFFFF"/><text text-anchor="middle" pointer-events="none" y="5" font-size="10px" fill="#FFFFFF" font-family="sans-serif"> MERS-…</text></g><g class="node" transform="translate(-67.17634023112683,-109.11655576089106)"><circle class="outline" cx="0" cy="0" r="25" fill="#A5ABB6" stroke="#9AA1AC" stroke-width="2px"/><text text-anchor="middle" pointer-events="none" font-family="sans-serif" dy="1.5625" font-size="25" fill="#FFFFFF"/><text text-anchor="middle" pointer-events="none" y="5" font-size="10px" fill="#FFFFFF" font-family="sans-serif"> pitavast…</text></g><g class="node" transform="translate(217.40653362506748,-208.45787997261584)"><circle class="outline" cx="0" cy="0" r="25" fill="#A5ABB6" stroke="#9AA1AC" stroke-width="2px"/><text text-anchor="middle" pointer-events="none" font-family="sans-serif" dy="1.5625" font-size="25" fill="#FFFFFF"/><text text-anchor="middle" pointer-events="none" y="5" font-size="10px" fill="#FFFFFF" font-family="sans-serif"> neutraliz…</text></g></g></svg>