<svg width="407.874" height="407.242" viewBox="-104.106 -103.963 407.874 407.242" xmlns="http://www.w3.org/2000/svg" xmlns:xlink="http://www.w3.org/1999/xlink" overflow="hidden"><g><g transform="matrix(-0.995225 -0.0976076 0.0976076 -0.995225 100.455 99.2036)"><path d="M25 1 44.9152 1 44.9152-1 25-1ZM80.7121 1 100.627 1 100.627 4 108.627 0 100.627-4 100.627-1 80.7121-1Z" fill="#D9C8AE"/><text font-family="Arial" font-size="8" text-anchor="middle" transform="matrix(-1 1.22465e-16 -1.22465e-16 -1 125.627 -7.69246e-15)" x="62.8137" y="3">Produce</text></g><g transform="matrix(0.962312 0.271946 -0.271946 0.962312 100.455 99.2036)"><path d="M25 1 34.9098 1 34.9098-1 25-1ZM67.5856 1 77.4954 1 77.4954 4 85.4954 0 77.4954-4 77.4954-1 67.5856-1Z" fill="#DA7194"/><text font-family="Arial" font-size="8" text-anchor="middle" x="51.2477" y="3">Host_is</text></g><g transform="matrix(-0.607662 0.794196 -0.794196 -0.607662 100.455 99.2036)"><path d="M25 0.5 79.5613 0.5 79.5613-0.5 25-0.5ZM87.3387 0.5 141.9 0.5 141.9 3.5 148.9 0 141.9-3.5 141.9-0.5 87.3387-0.5Z" fill="#D9C8AE"/><text font-family="Arial" font-size="8" text-anchor="middle" transform="matrix(-1 1.22465e-16 -1.22465e-16 -1 166.9 -1.02197e-14)" x="83.45" y="3"></text></g><g transform="matrix(0.0648136 0.997897 -0.997897 0.0648136 100.455 99.2036)"><path d="M25 0.5 80.3338 0.5 80.3338-0.5 25-0.5ZM88.1112 0.5 143.445 0.5 143.445 3.5 150.445 0 143.445-3.5 143.445-0.5 88.1112-0.5Z" fill="#D9C8AE"/><text font-family="Arial" font-size="8" text-anchor="middle" x="84.2225" y="3"></text></g><g transform="matrix(-0.456255 0.889849 -0.889849 -0.456255 100.455 99.2036)"><path d="M25 0.5 51.5442 0.5 51.5442-0.5 25-0.5ZM59.3215 0.5 85.8657 0.5 85.8657 3.5 92.8657 0 85.8657-3.5 85.8657-0.5 59.3215-0.5Z" fill="#D9C8AE"/><text font-family="Arial" font-size="8" text-anchor="middle" transform="matrix(-1 1.22465e-16 -1.22465e-16 -1 110.866 -6.78857e-15)" x="55.4328" y="3"></text></g><g transform="matrix(0.857822 0.513947 -0.513947 0.857822 100.455 99.2036)"><path d="M25 0.5 83.0862 0.5 83.0862-0.5 25-0.5ZM90.8636 0.5 148.95 0.5 148.95 3.5 155.95 0 148.95-3.5 148.95-0.5 90.8636-0.5Z" fill="#D9C8AE"/><text font-family="Arial" font-size="8" text-anchor="middle" x="86.9749" y="3"></text></g><g transform="matrix(-0.906401 0.422418 -0.422418 -0.906401 100.455 99.2036)"><path d="M25 0.5 53.8689 0.5 53.8689-0.5 25-0.5ZM61.6463 0.5 90.5152 0.5 90.5152 3.5 97.5152 0 90.5152-3.5 90.5152-0.5 61.6463-0.5Z" fill="#D9C8AE"/><text font-family="Arial" font-size="8" text-anchor="middle" transform="matrix(-1 1.22465e-16 -1.22465e-16 -1 115.515 -7.07327e-15)" x="57.7576" y="3"></text></g><g transform="matrix(0.980528 0.196381 -0.196381 0.980528 100.455 99.2036)"><path d="M25 0.5 81.4984 0.5 81.4984-0.5 25-0.5ZM89.2757 0.5 145.774 0.5 145.774 3.5 152.774 0 145.774-3.5 145.774-0.5 89.2757-0.5Z" fill="#D9C8AE"/><text font-family="Arial" font-size="8" text-anchor="middle" x="85.3871" y="3"></text></g><g transform="matrix(0.894337 -0.447395 0.447395 0.894337 100.455 99.2036)"><path d="M25 0.5 83.9055 0.5 83.9055-0.5 25-0.5ZM91.6829 0.5 150.588 0.5 150.588 3.5 157.588 0 150.588-3.5 150.588-0.5 91.6829-0.5Z" fill="#D9C8AE"/><text font-family="Arial" font-size="8" text-anchor="middle" x="87.7942" y="3"></text></g><g transform="matrix(0.445009 0.895526 -0.895526 0.445009 100.455 99.2036)"><path d="M25 0.5 83.4594 0.5 83.4594-0.5 25-0.5ZM91.2368 0.5 149.696 0.5 149.696 3.5 156.696 0 149.696-3.5 149.696-0.5 91.2368-0.5Z" fill="#D9C8AE"/><text font-family="Arial" font-size="8" text-anchor="middle" x="87.3481" y="3"></text></g><g transform="matrix(0.817582 -0.575813 0.575813 0.817582 100.455 99.2036)"><path d="M25 0.5 55.4309 0.5 55.4309-0.5 25-0.5ZM63.2082 0.5 93.6391 0.5 93.6391 3.5 100.639 0 93.6391-3.5 93.6391-0.5 63.2082-0.5Z" fill="#D9C8AE"/><text font-family="Arial" font-size="8" text-anchor="middle" x="59.3196" y="3"></text></g><g transform="matrix(-0.83816 0.545424 -0.545424 -0.83816 100.455 99.2036)"><path d="M25 0.5 81.9985 0.5 81.9985-0.5 25-0.5ZM89.7758 0.5 146.774 0.5 146.774 3.5 153.774 0 146.774-3.5 146.774-0.5 89.7758-0.5Z" fill="#D9C8AE"/><text font-family="Arial" font-size="8" text-anchor="middle" transform="matrix(-1 1.22465e-16 -1.22465e-16 -1 171.774 -1.05181e-14)" x="85.8872" y="3"></text></g><g transform="matrix(0.990041 -0.140781 0.140781 0.990041 100.455 99.2036)"><path d="M25 0.5 71.3246 0.5 71.3246-0.5 25-0.5ZM79.102 0.5 125.427 0.5 125.427 3.5 132.427 0 125.427-3.5 125.427-0.5 79.102-0.5Z" fill="#D9C8AE"/><text font-family="Arial" font-size="8" text-anchor="middle" x="75.2133" y="3"></text></g><g transform="matrix(0.376069 -0.926592 0.926592 0.376069 100.455 99.2036)"><path d="M25 0.5 53.9358 0.5 53.9358-0.5 25-0.5ZM61.7131 0.5 90.6489 0.5 90.6489 3.5 97.6489 0 90.6489-3.5 90.6489-0.5 61.7131-0.5Z" fill="#D9C8AE"/><text font-family="Arial" font-size="8" text-anchor="middle" x="57.8244" y="3"></text></g><g transform="matrix(-0.0578754 -0.998324 0.998324 -0.0578754 100.455 99.2036)"><path d="M25 0.5 79.8406 0.5 79.8406-0.5 25-0.5ZM87.6179 0.5 142.458 0.5 142.458 3.5 149.458 0 142.458-3.5 142.458-0.5 87.6179-0.5Z" fill="#D9C8AE"/><text font-family="Arial" font-size="8" text-anchor="middle" transform="matrix(-1 1.22465e-16 -1.22465e-16 -1 167.458 -1.02539e-14)" x="83.7292" y="3"></text></g><g transform="matrix(0.656267 -0.754528 0.754528 0.656267 100.455 99.2036)"><path d="M25 0.5 80.5045 0.5 80.5045-0.5 25-0.5ZM88.2819 0.5 143.786 0.5 143.786 3.5 150.786 0 143.786-3.5 143.786-0.5 88.2819-0.5Z" fill="#D9C8AE"/><text font-family="Arial" font-size="8" text-anchor="middle" x="84.3932" y="3"></text></g><g transform="matrix(-0.986423 0.164227 -0.164227 -0.986423 100.455 99.2036)"><path d="M25 0.5 81.6004 0.5 81.6004-0.5 25-0.5ZM89.3778 0.5 145.978 0.5 145.978 3.5 152.978 0 145.978-3.5 145.978-0.5 89.3778-0.5Z" fill="#D9C8AE"/><text font-family="Arial" font-size="8" text-anchor="middle" transform="matrix(-1 1.22465e-16 -1.22465e-16 -1 170.978 -1.04694e-14)" x="85.4891" y="3"></text></g><g transform="matrix(-0.466412 -0.884568 0.884568 -0.466412 100.455 99.2036)"><path d="M25 0.5 80.9509 0.5 80.9509-0.5 25-0.5ZM88.7282 0.5 144.679 0.5 144.679 3.5 151.679 0 144.679-3.5 144.679-0.5 88.7282-0.5Z" fill="#D9C8AE"/><text font-family="Arial" font-size="8" text-anchor="middle" transform="matrix(-1 1.22465e-16 -1.22465e-16 -1 169.679 -1.03899e-14)" x="84.8396" y="3"></text></g><g transform="matrix(-0.280713 -0.959792 0.959792 -0.280713 100.455 99.2036)"><path d="M25 0.5 54.9056 0.5 54.9056-0.5 25-0.5ZM62.6829 0.5 92.5885 0.5 92.5885 3.5 99.5885 0 92.5885-3.5 92.5885-0.5 62.6829-0.5Z" fill="#D9C8AE"/><text font-family="Arial" font-size="8" text-anchor="middle" transform="matrix(-1 1.22465e-16 -1.22465e-16 -1 117.588 -7.20022e-15)" x="58.7942" y="3"></text></g><g transform="matrix(-0.277589 0.9607 -0.9607 -0.277589 100.455 99.2036)"><path d="M25 0.5 78.8697 0.5 78.8697-0.5 25-0.5ZM86.647 0.5 140.517 0.5 140.517 3.5 147.517 0 140.517-3.5 140.517-0.5 86.647-0.5Z" fill="#D9C8AE"/><text font-family="Arial" font-size="8" text-anchor="middle" transform="matrix(-1 1.22465e-16 -1.22465e-16 -1 165.517 -1.0135e-14)" x="82.7584" y="3"></text></g><g transform="matrix(-0.756846 -0.653593 0.653593 -0.756846 100.455 99.2036)"><path d="M25 0.5 83.3683 0.5 83.3683-0.5 25-0.5ZM91.1456 0.5 149.514 0.5 149.514 3.5 156.514 0 149.514-3.5 149.514-0.5 91.1456-0.5Z" fill="#D9C8AE"/><text font-family="Arial" font-size="8" text-anchor="middle" transform="matrix(-1 1.22465e-16 -1.22465e-16 -1 174.514 -1.06859e-14)" x="87.257" y="3"></text></g><g transform="matrix(0.255293 0.966864 -0.966864 0.255293 100.455 99.2036)"><path d="M25 0.5 53.8905 0.5 53.8905-0.5 25-0.5ZM61.6679 0.5 90.5584 0.5 90.5584 3.5 97.5584 0 90.5584-3.5 90.5584-0.5 61.6679-0.5Z" fill="#D9C8AE"/><text font-family="Arial" font-size="8" text-anchor="middle" x="57.7792" y="3"></text></g><g transform="matrix(-0.946972 -0.321317 0.321317 -0.946972 100.455 99.2036)"><path d="M25 0.5 83.5175 0.5 83.5175-0.5 25-0.5ZM91.2949 0.5 149.812 0.5 149.812 3.5 156.812 0 149.812-3.5 149.812-0.5 91.2949-0.5Z" fill="#D9C8AE"/><text font-family="Arial" font-size="8" text-anchor="middle" transform="matrix(-1 1.22465e-16 -1.22465e-16 -1 174.812 -1.07042e-14)" x="87.4062" y="3"></text></g><g transform="matrix(-0.786151 -0.618034 0.618034 -0.786151 100.455 99.2036)"><path d="M25 0.5 53.5822 0.5 53.5822-0.5 25-0.5ZM61.3595 0.5 89.9417 0.5 89.9417 3.5 96.9417 0 89.9417-3.5 89.9417-0.5 61.3595-0.5Z" fill="#D9C8AE"/><text font-family="Arial" font-size="8" text-anchor="middle" transform="matrix(-1 1.22465e-16 -1.22465e-16 -1 114.942 -7.03815e-15)" x="57.4708" y="3"></text></g><g transform="matrix(0.304146 -0.952625 0.952625 0.304146 100.455 99.2036)"><path d="M25 0.5 83.365 0.5 83.365-0.5 25-0.5ZM91.1423 0.5 149.507 0.5 149.507 3.5 156.507 0 149.507-3.5 149.507-0.5 91.1423-0.5Z" fill="#D9C8AE"/><text font-family="Arial" font-size="8" text-anchor="middle" x="87.2537" y="3"></text></g><g transform="matrix(0.677192 0.735806 -0.735806 0.677192 100.455 99.2036)"><path d="M25 0.5 63.8095 0.5 63.8095-0.5 25-0.5ZM71.5869 0.5 110.396 0.5 110.396 3.5 117.396 0 110.396-3.5 110.396-0.5 71.5869-0.5Z" fill="#D9C8AE"/><text font-family="Arial" font-size="8" text-anchor="middle" x="67.6982" y="3"></text></g></g><g><g transform="translate(100.455 99.2036)"><circle cx="0" cy="0" r="25" stroke="#F36924" stroke-width="2" fill="#F79767"/><text fill="#FFFFFF" font-family="Arial" font-size="25" text-anchor="middle" dy="1.5625"></text><text fill="#FFFFFF" font-family="Arial" font-size="10" text-anchor="middle" y="5">SARS</text></g><g transform="translate(206.787 129.252)"><circle cx="0" cy="0" r="25" stroke="#2870C2" stroke-width="2" fill="#4C8EDA"/><text fill="#FFFFFF" font-family="Arial" font-size="25" text-anchor="middle" dy="1.5625"></text><text fill="#FFFFFF" font-family="Arial" font-size="10" text-anchor="middle" y="5">Human</text></g><g transform="translate(-32.5338 86.1605)"><circle cx="0" cy="0" r="25" stroke="#EB2728" stroke-width="2" fill="#F16667"/><text fill="#FFFFFF" font-family="Arial" font-size="25" text-anchor="middle" dy="1.5625"></text><text fill="#FFFFFF" font-family="Arial" font-size="10" text-anchor="middle" y="5">VME1</text></g><g transform="translate(-5.217 237.314)"><circle cx="0" cy="0" r="25" stroke="#EB2728" stroke-width="2" fill="#F16667"/><text fill="#FFFFFF" font-family="Arial" font-size="25" text-anchor="middle" dy="1.5625"></text><text fill="#FFFFFF" font-family="Arial" font-size="10" text-anchor="middle" y="5">NS7B</text></g><g transform="translate(111.827 274.28)"><circle cx="0" cy="0" r="25" stroke="#EB2728" stroke-width="2" fill="#F16667"/><text fill="#FFFFFF" font-family="Arial" font-size="25" text-anchor="middle" dy="1.5625"></text><text fill="#FFFFFF" font-family="Arial" font-size="10" text-anchor="middle" y="5">NP</text></g><g transform="translate(46.6786 204.086)"><circle cx="0" cy="0" r="25" stroke="#EB2728" stroke-width="2" fill="#F16667"/><text fill="#FFFFFF" font-family="Arial" font-size="25" text-anchor="middle" dy="1.5625"></text><text fill="#FFFFFF" font-family="Arial" font-size="10" text-anchor="middle" y="5">NP</text></g><g transform="translate(255.678 192.202)"><circle cx="0" cy="0" r="25" stroke="#EB2728" stroke-width="2" fill="#F16667"/><text fill="#FFFFFF" font-family="Arial" font-size="25" text-anchor="middle" dy="1.5625"></text><text fill="#FFFFFF" font-family="Arial" font-size="10" text-anchor="middle" y="5">NS7A</text></g><g transform="translate(-10.5925 150.956)"><circle cx="0" cy="0" r="25" stroke="#EB2728" stroke-width="2" fill="#F16667"/><text fill="#FFFFFF" font-family="Arial" font-size="25" text-anchor="middle" dy="1.5625"></text><text fill="#FFFFFF" font-family="Arial" font-size="10" text-anchor="middle" y="5">VEMP</text></g><g transform="translate(274.768 134.115)"><circle cx="0" cy="0" r="25" stroke="#EB2728" stroke-width="2" fill="#F16667"/><text fill="#FFFFFF" font-family="Arial" font-size="25" text-anchor="middle" dy="1.5625"></text><text fill="#FFFFFF" font-family="Arial" font-size="10" text-anchor="middle" y="5">NP</text></g><g transform="translate(263.751 17.5144)"><circle cx="0" cy="0" r="25" stroke="#EB2728" stroke-width="2" fill="#F16667"/><text fill="#FFFFFF" font-family="Arial" font-size="25" text-anchor="middle" dy="1.5625"></text><text fill="#FFFFFF" font-family="Arial" font-size="10" text-anchor="middle" y="5">NP</text></g><g transform="translate(181.312 261.917)"><circle cx="0" cy="0" r="25" stroke="#EB2728" stroke-width="2" fill="#F16667"/><text fill="#FFFFFF" font-family="Arial" font-size="25" text-anchor="middle" dy="1.5625"></text><text fill="#FFFFFF" font-family="Arial" font-size="10" text-anchor="middle" y="5">NP</text></g><g transform="translate(203.176 26.8589)"><circle cx="0" cy="0" r="25" stroke="#EB2728" stroke-width="2" fill="#F16667"/><text fill="#FFFFFF" font-family="Arial" font-size="25" text-anchor="middle" dy="1.5625"></text><text fill="#FFFFFF" font-family="Arial" font-size="10" text-anchor="middle" y="5">NP</text></g><g transform="translate(-49.3861 196.711)"><circle cx="0" cy="0" r="25" stroke="#EB2728" stroke-width="2" fill="#F16667"/><text fill="#FFFFFF" font-family="Arial" font-size="25" text-anchor="middle" dy="1.5625"></text><text fill="#FFFFFF" font-family="Arial" font-size="10" text-anchor="middle" y="5">NP</text></g><g transform="translate(256.314 77.0408)"><circle cx="0" cy="0" r="25" stroke="#EB2728" stroke-width="2" fill="#F16667"/><text fill="#FFFFFF" font-family="Arial" font-size="25" text-anchor="middle" dy="1.5625"></text><text fill="#FFFFFF" font-family="Arial" font-size="10" text-anchor="middle" y="5">NP</text></g><g transform="translate(146.58 -14.4419)"><circle cx="0" cy="0" r="25" stroke="#EB2728" stroke-width="2" fill="#F16667"/><text fill="#FFFFFF" font-family="Arial" font-size="25" text-anchor="middle" dy="1.5625"></text><text fill="#FFFFFF" font-family="Arial" font-size="10" text-anchor="middle" y="5">NP</text></g><g transform="translate(90.3586 -74.9625)"><circle cx="0" cy="0" r="25" stroke="#EB2728" stroke-width="2" fill="#F16667"/><text fill="#FFFFFF" font-family="Arial" font-size="25" text-anchor="middle" dy="1.5625"></text><text fill="#FFFFFF" font-family="Arial" font-size="10" text-anchor="middle" y="5">NCAP</text></g><g transform="translate(215.818 -33.4323)"><circle cx="0" cy="0" r="25" stroke="#EB2728" stroke-width="2" fill="#F16667"/><text fill="#FFFFFF" font-family="Arial" font-size="25" text-anchor="middle" dy="1.5625"></text><text fill="#FFFFFF" font-family="Arial" font-size="10" text-anchor="middle" y="5">NP</text></g><g transform="translate(-75.1063 128.432)"><circle cx="0" cy="0" r="25" stroke="#EB2728" stroke-width="2" fill="#F16667"/><text fill="#FFFFFF" font-family="Arial" font-size="25" text-anchor="middle" dy="1.5625"></text><text fill="#FFFFFF" font-family="Arial" font-size="10" text-anchor="middle" y="5">NS3B</text></g><g transform="translate(18.0502 -57.0811)"><circle cx="0" cy="0" r="25" stroke="#EB2728" stroke-width="2" fill="#F16667"/><text fill="#FFFFFF" font-family="Arial" font-size="25" text-anchor="middle" dy="1.5625"></text><text fill="#FFFFFF" font-family="Arial" font-size="10" text-anchor="middle" y="5">NS6</text></g><g transform="translate(65.4818 -20.3754)"><circle cx="0" cy="0" r="25" stroke="#EB2728" stroke-width="2" fill="#F16667"/><text fill="#FFFFFF" font-family="Arial" font-size="25" text-anchor="middle" dy="1.5625"></text><text fill="#FFFFFF" font-family="Arial" font-size="10" text-anchor="middle" y="5">NP</text></g><g transform="translate(52.5668 264.94)"><circle cx="0" cy="0" r="25" stroke="#EB2728" stroke-width="2" fill="#F16667"/><text fill="#FFFFFF" font-family="Arial" font-size="25" text-anchor="middle" dy="1.5625"></text><text fill="#FFFFFF" font-family="Arial" font-size="10" text-anchor="middle" y="5">ORF9B</text></g><g transform="translate(-36.9226 -19.4327)"><circle cx="0" cy="0" r="25" stroke="#EB2728" stroke-width="2" fill="#F16667"/><text fill="#FFFFFF" font-family="Arial" font-size="25" text-anchor="middle" dy="1.5625"></text><text fill="#FFFFFF" font-family="Arial" font-size="10" text-anchor="middle" y="5">NP</text></g><g transform="translate(131.744 217.701)"><circle cx="0" cy="0" r="25" stroke="#EB2728" stroke-width="2" fill="#F16667"/><text fill="#FFFFFF" font-family="Arial" font-size="25" text-anchor="middle" dy="1.5625"></text><text fill="#FFFFFF" font-family="Arial" font-size="10" text-anchor="middle" y="5">NP</text></g><g transform="translate(-71.7157 40.7841)"><circle cx="0" cy="0" r="25" stroke="#EB2728" stroke-width="2" fill="#F16667"/><text fill="#FFFFFF" font-family="Arial" font-size="25" text-anchor="middle" dy="1.5625"></text><text fill="#FFFFFF" font-family="Arial" font-size="10" text-anchor="middle" y="5">NS8A</text></g><g transform="translate(4.59086 23.8394)"><circle cx="0" cy="0" r="25" stroke="#EB2728" stroke-width="2" fill="#F16667"/><text fill="#FFFFFF" font-family="Arial" font-size="25" text-anchor="middle" dy="1.5625"></text><text fill="#FFFFFF" font-family="Arial" font-size="10" text-anchor="middle" y="5">NP</text></g><g transform="translate(155.66 -73.7049)"><circle cx="0" cy="0" r="25" stroke="#EB2728" stroke-width="2" fill="#F16667"/><text fill="#FFFFFF" font-family="Arial" font-size="25" text-anchor="middle" dy="1.5625"></text><text fill="#FFFFFF" font-family="Arial" font-size="10" text-anchor="middle" y="5">NP</text></g><g transform="translate(196.885 203.98)"><circle cx="0" cy="0" r="25" stroke="#EB2728" stroke-width="2" fill="#F16667"/><text fill="#FFFFFF" font-family="Arial" font-size="25" text-anchor="middle" dy="1.5625"></text><text fill="#FFFFFF" font-family="Arial" font-size="10" text-anchor="middle" y="5">NP</text></g></g></svg>