<svg xmlns="http://www.w3.org/2000/svg" width="666.3235473632812" height="385.5530090332031" viewBox="-147.23426818847656 -119.276611328125 666.3235473632812 385.5530090332031"><title>Neo4j Graph Visualization</title><desc>Created using Neo4j (http://www.neo4j.com/)</desc><g class="layer relationships"><g class="relationship" transform="translate(217.18967654542786 67.045525920097) rotate(376.05505039601354)"><path class="outline" fill="#569480" stroke="none" d="M 25 0.5 L 70.58922691904664 0.5 L 70.58922691904664 -0.5 L 25 -0.5 Z M 111.26110191904664 0.5 L 156.85032883809328 0.5 L 156.85032883809328 3.5 L 163.85032883809328 0 L 156.85032883809328 -3.5 L 156.85032883809328 -0.5 L 111.26110191904664 -0.5 Z"/><text text-anchor="middle" pointer-events="none" font-size="8px" fill="#000000" x="90.92516441904664" y="3" font-family="sans-serif">MEMBER</text></g><g class="relationship" transform="translate(217.18967654542786 67.045525920097) rotate(409.70301087532835)"><path class="outline" fill="#569480" stroke="none" d="M 25 0.5 L 40.09077097021649 0.5 L 40.09077097021649 -0.5 L 25 -0.5 Z M 80.76264597021648 0.5 L 95.85341694043298 0.5 L 95.85341694043298 3.5 L 102.85341694043298 0 L 95.85341694043298 -3.5 L 95.85341694043298 -0.5 L 80.76264597021648 -0.5 Z"/><text text-anchor="middle" pointer-events="none" font-size="8px" fill="#000000" x="60.42670847021649" y="3" font-family="sans-serif">MEMBER</text></g><g class="relationship" transform="translate(217.18967654542786 67.045525920097) rotate(308.8001996700949)"><path class="outline" fill="#569480" stroke="none" d="M 25 0.5 L 29.60118427346834 0.5 L 29.60118427346834 -0.5 L 25 -0.5 Z M 70.27305927346833 0.5 L 74.87424354693668 0.5 L 74.87424354693668 3.5 L 81.87424354693668 0 L 74.87424354693668 -3.5 L 74.87424354693668 -0.5 L 70.27305927346833 -0.5 Z"/><text text-anchor="middle" pointer-events="none" font-size="8px" fill="#000000" x="49.93712177346834" y="3" font-family="sans-serif">MEMBER</text></g><g class="relationship" transform="translate(217.18967654542786 67.045525920097) rotate(382.42977475584576)"><path class="outline" fill="#569480" stroke="none" d="M 25 0.5 L 34.1440957821825 0.5 L 34.1440957821825 -0.5 L 25 -0.5 Z M 74.81597078218249 0.5 L 83.960066564365 0.5 L 83.960066564365 3.5 L 90.960066564365 0 L 83.960066564365 -3.5 L 83.960066564365 -0.5 L 74.81597078218249 -0.5 Z"/><text text-anchor="middle" pointer-events="none" font-size="8px" fill="#000000" x="54.4800332821825" y="3" font-family="sans-serif">MEMBER</text></g><g class="relationship" transform="translate(217.18967654542786 67.045525920097) rotate(393.31896199472646)"><path class="outline" fill="#569480" stroke="none" d="M 25 0.5 L 60.72953423447204 0.5 L 60.72953423447204 -0.5 L 25 -0.5 Z M 101.40140923447204 0.5 L 137.13094346894408 0.5 L 137.13094346894408 3.5 L 144.13094346894408 0 L 137.13094346894408 -3.5 L 137.13094346894408 -0.5 L 101.40140923447204 -0.5 Z"/><text text-anchor="middle" pointer-events="none" font-size="8px" fill="#000000" x="81.06547173447204" y="3" font-family="sans-serif">MEMBER</text></g><g class="relationship" transform="translate(217.18967654542786 67.045525920097) rotate(411.3572306782537)"><path class="outline" fill="#569480" stroke="none" d="M 25 0.5 L 85.13907308256422 0.5 L 85.13907308256422 -0.5 L 25 -0.5 Z M 125.81094808256422 0.5 L 185.95002116512845 0.5 L 185.95002116512845 3.5 L 192.95002116512845 0 L 185.95002116512845 -3.5 L 185.95002116512845 -0.5 L 125.81094808256422 -0.5 Z"/><text text-anchor="middle" pointer-events="none" font-size="8px" fill="#000000" x="105.47501058256422" y="3" font-family="sans-serif">MEMBER</text></g><g class="relationship" transform="translate(217.18967654542786 67.045525920097) rotate(312.11811110416704)"><path class="outline" fill="#569480" stroke="none" d="M 25 0.5 L 82.21002528816312 0.5 L 82.21002528816312 -0.5 L 25 -0.5 Z M 122.88190028816312 0.5 L 180.09192557632625 0.5 L 180.09192557632625 3.5 L 187.09192557632625 0 L 180.09192557632625 -3.5 L 180.09192557632625 -0.5 L 122.88190028816312 -0.5 Z"/><text text-anchor="middle" pointer-events="none" font-size="8px" fill="#000000" x="102.54596278816312" y="3" font-family="sans-serif">MEMBER</text></g><g class="relationship" transform="translate(217.18967654542786 67.045525920097) rotate(340.0817525664662)"><path class="outline" fill="#569480" stroke="none" d="M 25 0.5 L 32.56813862028446 0.5 L 32.56813862028446 -0.5 L 25 -0.5 Z M 73.24001362028446 0.5 L 80.80815224056892 0.5 L 80.80815224056892 3.5 L 87.80815224056892 0 L 80.80815224056892 -3.5 L 80.80815224056892 -0.5 L 73.24001362028446 -0.5 Z"/><text text-anchor="middle" pointer-events="none" font-size="8px" fill="#000000" x="52.90407612028446" y="3" font-family="sans-serif">MEMBER</text></g><g class="relationship" transform="translate(217.18967654542786 67.045525920097) rotate(360.5457216391834)"><path class="outline" fill="#569480" stroke="none" d="M 25 0.5 L 50.36374476259431 0.5 L 50.36374476259431 -0.5 L 25 -0.5 Z M 91.03561976259431 0.5 L 116.39936452518862 0.5 L 116.39936452518862 3.5 L 123.39936452518862 0 L 116.39936452518862 -3.5 L 116.39936452518862 -0.5 L 91.03561976259431 -0.5 Z"/><text text-anchor="middle" pointer-events="none" font-size="8px" fill="#000000" x="70.69968226259431" y="3" font-family="sans-serif">MEMBER</text></g><g class="relationship" transform="translate(217.18967654542786 67.045525920097) rotate(342.8741553600944)"><path class="outline" fill="#569480" stroke="none" d="M 25 0.5 L 62.25748827006193 0.5 L 62.25748827006193 -0.5 L 25 -0.5 Z M 102.92936327006193 0.5 L 140.18685154012385 0.5 L 140.18685154012385 3.5 L 147.18685154012385 0 L 140.18685154012385 -3.5 L 140.18685154012385 -0.5 L 102.92936327006193 -0.5 Z"/><text text-anchor="middle" pointer-events="none" font-size="8px" fill="#000000" x="82.59342577006193" y="3" font-family="sans-serif">MEMBER</text></g><g class="relationship" transform="translate(217.18967654542786 67.045525920097) rotate(328.84454992738597)"><path class="outline" fill="#569480" stroke="none" d="M 25 0.5 L 80.97861756657271 0.5 L 80.97861756657271 -0.5 L 25 -0.5 Z M 121.65049256657271 0.5 L 177.62911013314542 0.5 L 177.62911013314542 3.5 L 184.62911013314542 0 L 177.62911013314542 -3.5 L 177.62911013314542 -0.5 L 121.65049256657271 -0.5 Z"/><text text-anchor="middle" pointer-events="none" font-size="8px" fill="#000000" x="101.31455506657271" y="3" font-family="sans-serif">MEMBER</text></g><g class="relationship" transform="translate(217.18967654542786 67.045525920097) rotate(322.5213742802358)"><path class="outline" fill="#569480" stroke="none" d="M 25 0.5 L 53.601923855483335 0.5 L 53.601923855483335 -0.5 L 25 -0.5 Z M 94.27379885548334 0.5 L 122.87572271096667 0.5 L 122.87572271096667 3.5 L 129.87572271096667 0 L 122.87572271096667 -3.5 L 122.87572271096667 -0.5 L 94.27379885548334 -0.5 Z"/><text text-anchor="middle" pointer-events="none" font-size="8px" fill="#000000" x="73.93786135548334" y="3" font-family="sans-serif">MEMBER</text></g><g class="relationship" transform="translate(217.18967654542786 67.045525920097) rotate(473.1494225168483)"><path class="outline" fill="#DA7194" stroke="none" d="M 25 0.5 L 52.152360527352045 0.5 L 52.152360527352045 -0.5 L 25 -0.5 Z M 85.13282927735204 0.5 L 112.28518980470409 0.5 L 112.28518980470409 3.5 L 119.28518980470409 0 L 112.28518980470409 -3.5 L 112.28518980470409 -0.5 L 85.13282927735204 -0.5 Z"/><text text-anchor="middle" pointer-events="none" font-size="8px" fill="#000000" x="68.64259490235204" y="3" transform="rotate(180 68.64259490235204 0)" font-family="sans-serif">CODES</text></g><g class="relationship" transform="translate(217.18967654542786 67.045525920097) rotate(208.922423028975)"><path class="outline" fill="#FFC454" stroke="none" d="M 25 0.5 L 70.34504873012655 0.5 L 70.34504873012655 -0.5 L 25 -0.5 Z M 99.30207998012655 0.5 L 144.6471287102531 0.5 L 144.6471287102531 3.5 L 151.6471287102531 0 L 144.6471287102531 -3.5 L 144.6471287102531 -0.5 L 99.30207998012655 -0.5 Z"/><text text-anchor="middle" pointer-events="none" font-size="8px" fill="#000000" x="84.82356435512655" y="3" transform="rotate(180 84.82356435512655 0)" font-family="sans-serif">MAPS</text></g><g class="relationship" transform="translate(217.18967654542786 67.045525920097) rotate(510.0204244869334)"><path class="outline" fill="#FFC454" stroke="none" d="M 25 0.5 L 73.59645464924095 0.5 L 73.59645464924095 -0.5 L 25 -0.5 Z M 102.55348589924095 0.5 L 151.1499405484819 0.5 L 151.1499405484819 3.5 L 158.1499405484819 0 L 151.1499405484819 -3.5 L 151.1499405484819 -0.5 L 102.55348589924095 -0.5 Z"/><text text-anchor="middle" pointer-events="none" font-size="8px" fill="#000000" x="88.07497027424095" y="3" transform="rotate(180 88.07497027424095 0)" font-family="sans-serif">MAPS</text></g><g class="relationship" transform="translate(217.18967654542786 67.045525920097) rotate(190.07431919150173)"><path class="outline" fill="#FFC454" stroke="none" d="M 25 0.5 L 59.17799318997635 0.5 L 59.17799318997635 -0.5 L 25 -0.5 Z M 88.13502443997635 0.5 L 122.3130176299527 0.5 L 122.3130176299527 3.5 L 129.3130176299527 0 L 122.3130176299527 -3.5 L 122.3130176299527 -0.5 L 88.13502443997635 -0.5 Z"/><text text-anchor="middle" pointer-events="none" font-size="8px" fill="#000000" x="73.65650881497635" y="3" transform="rotate(180 73.65650881497635 0)" font-family="sans-serif">MAPS</text></g><g class="relationship" transform="translate(217.18967654542786 67.045525920097) rotate(539.0832246552411)"><path class="outline" fill="#FFC454" stroke="none" d="M 25 0.5 L 149.7549249270677 0.5 L 149.7549249270677 -0.5 L 25 -0.5 Z M 178.7119561770677 0.5 L 303.4668811041354 0.5 L 303.4668811041354 3.5 L 310.4668811041354 0 L 303.4668811041354 -3.5 L 303.4668811041354 -0.5 L 178.7119561770677 -0.5 Z"/><text text-anchor="middle" pointer-events="none" font-size="8px" fill="#000000" x="164.2334405520677" y="3" transform="rotate(180 164.2334405520677 0)" font-family="sans-serif">MAPS</text></g><g class="relationship" transform="translate(217.18967654542786 67.045525920097) rotate(195.89706356121462)"><path class="outline" fill="#FFC454" stroke="none" d="M 25 0.5 L 88.99301818563065 0.5 L 88.99301818563065 -0.5 L 25 -0.5 Z M 117.95004943563065 0.5 L 181.9430676212613 0.5 L 181.9430676212613 3.5 L 188.9430676212613 0 L 181.9430676212613 -3.5 L 181.9430676212613 -0.5 L 117.95004943563065 -0.5 Z"/><text text-anchor="middle" pointer-events="none" font-size="8px" fill="#000000" x="103.47153381063065" y="3" transform="rotate(180 103.47153381063065 0)" font-family="sans-serif">MAPS</text></g><g class="relationship" transform="translate(217.18967654542786 67.045525920097) rotate(528.1801450600258)"><path class="outline" fill="#FFC454" stroke="none" d="M 25 0.5 L 61.291786232383174 0.5 L 61.291786232383174 -0.5 L 25 -0.5 Z M 90.24881748238317 0.5 L 126.54060371476635 0.5 L 126.54060371476635 3.5 L 133.54060371476635 0 L 126.54060371476635 -3.5 L 126.54060371476635 -0.5 L 90.24881748238317 -0.5 Z"/><text text-anchor="middle" pointer-events="none" font-size="8px" fill="#000000" x="75.77030185738317" y="3" transform="rotate(180 75.77030185738317 0)" font-family="sans-serif">MAPS</text></g><g class="relationship" transform="translate(217.18967654542786 67.045525920097) rotate(539.8933077055781)"><path class="outline" fill="#FFC454" stroke="none" d="M 25 0.5 L 84.06979438876874 0.5 L 84.06979438876874 -0.5 L 25 -0.5 Z M 113.02682563876874 0.5 L 172.09662002753748 0.5 L 172.09662002753748 3.5 L 179.09662002753748 0 L 172.09662002753748 -3.5 L 172.09662002753748 -0.5 L 113.02682563876874 -0.5 Z"/><text text-anchor="middle" pointer-events="none" font-size="8px" fill="#000000" x="98.54831001376874" y="3" transform="rotate(180 98.54831001376874 0)" font-family="sans-serif">MAPS</text></g><g class="relationship" transform="translate(217.18967654542786 67.045525920097) rotate(523.7981347232752)"><path class="outline" fill="#FFC454" stroke="none" d="M 25 0.5 L 89.97364517574633 0.5 L 89.97364517574633 -0.5 L 25 -0.5 Z M 118.93067642574633 0.5 L 183.90432160149265 0.5 L 183.90432160149265 3.5 L 190.90432160149265 0 L 183.90432160149265 -3.5 L 183.90432160149265 -0.5 L 118.93067642574633 -0.5 Z"/><text text-anchor="middle" pointer-events="none" font-size="8px" fill="#000000" x="104.45216080074633" y="3" transform="rotate(180 104.45216080074633 0)" font-family="sans-serif">MAPS</text></g><g class="relationship" transform="translate(398.67416590247444 119.27412751987185) rotate(515.3743730903047)"><path class="outline" fill="#4C8EDA" stroke="none" d="M 25 0.5 L 35.79496541181606 0.5 L 35.79496541181606 -0.5 L 25 -0.5 Z M 65.88480916181607 0.5 L 76.67977457363212 0.5 L 76.67977457363212 3.5 L 83.67977457363212 0 L 76.67977457363212 -3.5 L 76.67977457363212 -0.5 L 65.88480916181607 -0.5 Z"/><text text-anchor="middle" pointer-events="none" font-size="8px" fill="#000000" x="50.83988728681606" y="3" transform="rotate(180 50.83988728681606 0)" font-family="sans-serif">CHILD</text></g><g class="relationship" transform="translate(299.87883567678614 164.55962328808326) rotate(413.701662212462)"><path class="outline" fill="#4C8EDA" stroke="none" d="M 25 0.5 L 26.567782557004655 0.5 L 26.567782557004655 -0.5 L 25 -0.5 Z M 56.657626307004655 0.5 L 58.22540886400931 0.5 L 58.22540886400931 3.5 L 65.22540886400931 0 L 58.22540886400931 -3.5 L 58.22540886400931 -0.5 L 56.657626307004655 -0.5 Z"/><text text-anchor="middle" pointer-events="none" font-size="8px" fill="#000000" x="41.612704432004655" y="3" font-family="sans-serif">CHILD</text></g><g class="relationship" transform="translate(284.1577751496208 -16.24539617270388) rotate(347.38394376114513)"><path class="outline" fill="#4C8EDA" stroke="none" d="M 25 0.5 L 39.058648209457886 0.5 L 39.058648209457886 -0.5 L 25 -0.5 Z M 69.14849195945789 0.5 L 83.20714016891577 0.5 L 83.20714016891577 3.5 L 90.20714016891577 0 L 83.20714016891577 -3.5 L 83.20714016891577 -0.5 L 69.14849195945789 -0.5 Z"/><text text-anchor="middle" pointer-events="none" font-size="8px" fill="#000000" x="54.103570084457886" y="3" font-family="sans-serif">CHILD</text></g><g class="relationship" transform="translate(324.37711810940493 111.29017993141187) rotate(301.13889138364067)"><path class="outline" fill="#4C8EDA" stroke="none" d="M 25 0.5 L 36.921228925216596 0.5 L 36.921228925216596 -0.5 L 25 -0.5 Z M 67.0110726752166 0.5 L 78.93230160043319 0.5 L 78.93230160043319 3.5 L 85.93230160043319 0 L 78.93230160043319 -3.5 L 78.93230160043319 -0.5 L 67.0110726752166 -0.5 Z"/><text text-anchor="middle" pointer-events="none" font-size="8px" fill="#000000" x="51.966150800216596" y="3" font-family="sans-serif">CHILD</text></g><g class="relationship" transform="translate(353.2913572175867 237.27638165457788) rotate(273.8681523727781)"><path class="outline" fill="#4C8EDA" stroke="none" d="M 25 0.5 L 26.32225728850127 0.5 L 26.32225728850127 -0.5 L 25 -0.5 Z M 44.18163228850127 0.5 L 45.50388957700254 0.5 L 45.50388957700254 3.5 L 52.50388957700254 0 L 45.50388957700254 -3.5 L 45.50388957700254 -0.5 L 44.18163228850127 -0.5 Z"/><text text-anchor="middle" pointer-events="none" font-size="8px" fill="#000000" x="35.25194478850127" y="3" font-family="sans-serif">C…</text></g><g class="relationship" transform="translate(359.43148549696593 -90.2766043758917) rotate(447.7809631763346)"><path class="outline" fill="#4C8EDA" stroke="none" d="M 25 0.5 L 60.8824198359838 0.5 L 60.8824198359838 -0.5 L 25 -0.5 Z M 90.9722635859838 0.5 L 126.8546834219676 0.5 L 126.8546834219676 3.5 L 133.8546834219676 0 L 126.8546834219676 -3.5 L 126.8546834219676 -0.5 L 90.9722635859838 -0.5 Z"/><text text-anchor="middle" pointer-events="none" font-size="8px" fill="#000000" x="75.9273417109838" y="3" font-family="sans-serif">CHILD</text></g><g class="relationship" transform="translate(323.2496085688703 28.614158118337226) rotate(286.9265126450884)"><path class="outline" fill="#4C8EDA" stroke="none" d="M 25 0.5 L 43.59230855993934 0.5 L 43.59230855993934 -0.5 L 25 -0.5 Z M 73.68215230993934 0.5 L 92.27446086987868 0.5 L 92.27446086987868 3.5 L 99.27446086987868 0 L 92.27446086987868 -3.5 L 92.27446086987868 -0.5 L 73.68215230993934 -0.5 Z"/><text text-anchor="middle" pointer-events="none" font-size="8px" fill="#000000" x="58.63723043493934" y="3" font-family="sans-serif">CHILD</text></g><g class="relationship" transform="translate(365.58230981865165 68.45895498387277) rotate(255.07996746881736)"><path class="outline" fill="#4C8EDA" stroke="none" d="M 25 0.5 L 30.948675164863893 0.5 L 30.948675164863893 -0.5 L 25 -0.5 Z M 61.03851891486389 0.5 L 66.98719407972779 0.5 L 66.98719407972779 3.5 L 73.98719407972779 0 L 66.98719407972779 -3.5 L 66.98719407972779 -0.5 L 61.03851891486389 -0.5 Z"/><text text-anchor="middle" pointer-events="none" font-size="8px" fill="#000000" x="45.99359703986389" y="3" transform="rotate(180 45.99359703986389 0)" font-family="sans-serif">CHILD</text></g><g class="relationship" transform="translate(381.7418119209474 16.341417736860556) rotate(198.466015682124)"><path class="outline" fill="#4C8EDA" stroke="none" d="M 25 0.5 L 32.895686289572176 0.5 L 32.895686289572176 -0.5 L 25 -0.5 Z M 62.985530039572176 0.5 L 70.88121632914435 0.5 L 70.88121632914435 3.5 L 77.88121632914435 0 L 70.88121632914435 -3.5 L 70.88121632914435 -0.5 L 62.985530039572176 -0.5 Z"/><text text-anchor="middle" pointer-events="none" font-size="8px" fill="#000000" x="47.940608164572176" y="3" transform="rotate(180 47.940608164572176 0)" font-family="sans-serif">CHILD</text></g><g class="relationship" transform="translate(381.7418119209474 16.341417736860556) rotate(440.65854737441464)"><path class="outline" fill="#4C8EDA" stroke="none" d="M 25 0.5 L 33.613124854697816 0.5 L 33.613124854697816 -0.5 L 25 -0.5 Z M 63.702968604697816 0.5 L 72.31609345939563 0.5 L 72.31609345939563 3.5 L 79.31609345939563 0 L 72.31609345939563 -3.5 L 72.31609345939563 -0.5 L 63.702968604697816 -0.5 Z"/><text text-anchor="middle" pointer-events="none" font-size="8px" fill="#000000" x="48.658046729697816" y="3" font-family="sans-serif">CHILD</text></g><g class="relationship" transform="translate(490.089259829556 60.93250061723349) rotate(538.7167734691106)"><path class="outline" fill="#FFC454" stroke="none" d="M 25 0.5 L 118.50550508347365 0.5 L 118.50550508347365 -0.5 L 25 -0.5 Z M 147.46253633347365 0.5 L 240.9680414169473 0.5 L 240.9680414169473 3.5 L 247.9680414169473 0 L 240.9680414169473 -3.5 L 240.9680414169473 -0.5 L 147.46253633347365 -0.5 Z"/><text text-anchor="middle" pointer-events="none" font-size="8px" fill="#000000" x="132.98402070847365" y="3" transform="rotate(180 132.98402070847365 0)" font-family="sans-serif">MAPS</text></g><g class="relationship" transform="translate(490.089259829556 60.93250061723349) rotate(503.0356054871561)"><path class="outline" fill="#569480" stroke="none" d="M 25 0.5 L 58.49691340814579 0.5 L 58.49691340814579 -0.5 L 25 -0.5 Z M 99.16878840814579 0.5 L 132.66570181629157 0.5 L 132.66570181629157 3.5 L 139.66570181629157 0 L 132.66570181629157 -3.5 L 132.66570181629157 -0.5 L 99.16878840814579 -0.5 Z"/><text text-anchor="middle" pointer-events="none" font-size="8px" fill="#000000" x="78.83285090814579" y="3" transform="rotate(180 78.83285090814579 0)" font-family="sans-serif">MEMBER</text></g><g class="relationship" transform="translate(490.089259829556 60.93250061723349) rotate(190.96293269742245)"><path class="outline" fill="#569480" stroke="none" d="M 25 0.5 L 61.134563991198675 0.5 L 61.134563991198675 -0.5 L 25 -0.5 Z M 101.80643899119868 0.5 L 137.94100298239735 0.5 L 137.94100298239735 3.5 L 144.94100298239735 0 L 137.94100298239735 -3.5 L 137.94100298239735 -0.5 L 101.80643899119868 -0.5 Z"/><text text-anchor="middle" pointer-events="none" font-size="8px" fill="#000000" x="81.47050149119868" y="3" transform="rotate(180 81.47050149119868 0)" font-family="sans-serif">MEMBER</text></g><g class="relationship" transform="translate(490.089259829556 60.93250061723349) rotate(507.45375213611)"><path class="outline" fill="#569480" stroke="none" d="M 25 0.5 L 30.38690092474451 0.5 L 30.38690092474451 -0.5 L 25 -0.5 Z M 71.05877592474451 0.5 L 76.44567684948902 0.5 L 76.44567684948902 3.5 L 83.44567684948902 0 L 76.44567684948902 -3.5 L 76.44567684948902 -0.5 L 71.05877592474451 -0.5 Z"/><text text-anchor="middle" pointer-events="none" font-size="8px" fill="#000000" x="50.72283842474451" y="3" transform="rotate(180 50.72283842474451 0)" font-family="sans-serif">MEMBER</text></g><g class="relationship" transform="translate(490.089259829556 60.93250061723349) rotate(229.1701407859939)"><path class="outline" fill="#569480" stroke="none" d="M 25 0.5 L 76.08358940336358 0.5 L 76.08358940336358 -0.5 L 25 -0.5 Z M 116.75546440336358 0.5 L 167.83905380672715 0.5 L 167.83905380672715 3.5 L 174.83905380672715 0 L 167.83905380672715 -3.5 L 167.83905380672715 -0.5 L 116.75546440336358 -0.5 Z"/><text text-anchor="middle" pointer-events="none" font-size="8px" fill="#000000" x="96.41952690336358" y="3" transform="rotate(180 96.41952690336358 0)" font-family="sans-serif">MEMBER</text></g><g class="relationship" transform="translate(490.089259829556 60.93250061723349) rotate(227.5829931978214)"><path class="outline" fill="#569480" stroke="none" d="M 25 0.5 L 45.476861110818604 0.5 L 45.476861110818604 -0.5 L 25 -0.5 Z M 86.1487361108186 0.5 L 106.62559722163721 0.5 L 106.62559722163721 3.5 L 113.62559722163721 0 L 106.62559722163721 -3.5 L 106.62559722163721 -0.5 L 86.1487361108186 -0.5 Z"/><text text-anchor="middle" pointer-events="none" font-size="8px" fill="#000000" x="65.8127986108186" y="3" transform="rotate(180 65.8127986108186 0)" font-family="sans-serif">MEMBER</text></g><g class="relationship" transform="translate(490.089259829556 60.93250061723349) rotate(210.43493548888722)"><path class="outline" fill="#569480" stroke="none" d="M 25 0.5 L 63.1464243679189 0.5 L 63.1464243679189 -0.5 L 25 -0.5 Z M 103.8182993679189 0.5 L 141.9647237358378 0.5 L 141.9647237358378 3.5 L 148.9647237358378 0 L 141.9647237358378 -3.5 L 141.9647237358378 -0.5 L 103.8182993679189 -0.5 Z"/><text text-anchor="middle" pointer-events="none" font-size="8px" fill="#000000" x="83.4823618679189" y="3" transform="rotate(180 83.4823618679189 0)" font-family="sans-serif">MEMBER</text></g><g class="relationship" transform="translate(490.089259829556 60.93250061723349) rotate(536.5406754799449)"><path class="outline" fill="#569480" stroke="none" d="M 25 0.5 L 38.53117746524217 0.5 L 38.53117746524217 -0.5 L 25 -0.5 Z M 79.20305246524217 0.5 L 92.73422993048435 0.5 L 92.73422993048435 3.5 L 99.73422993048435 0 L 92.73422993048435 -3.5 L 92.73422993048435 -0.5 L 79.20305246524217 -0.5 Z"/><text text-anchor="middle" pointer-events="none" font-size="8px" fill="#000000" x="58.86711496524217" y="3" transform="rotate(180 58.86711496524217 0)" font-family="sans-serif">MEMBER</text></g><g class="relationship" transform="translate(490.089259829556 60.93250061723349) rotate(523.0966823919412)"><path class="outline" fill="#569480" stroke="none" d="M 25 0.5 L 62.76142068630534 0.5 L 62.76142068630534 -0.5 L 25 -0.5 Z M 103.43329568630534 0.5 L 141.19471637261069 0.5 L 141.19471637261069 3.5 L 148.19471637261069 0 L 141.19471637261069 -3.5 L 141.19471637261069 -0.5 L 103.43329568630534 -0.5 Z"/><text text-anchor="middle" pointer-events="none" font-size="8px" fill="#000000" x="83.09735818630534" y="3" transform="rotate(180 83.09735818630534 0)" font-family="sans-serif">MEMBER</text></g><g class="relationship" transform="translate(490.089259829556 60.93250061723349) rotate(202.36992824994417)"><path class="outline" fill="#569480" stroke="none" d="M 25 0.5 L 34.746342544295274 0.5 L 34.746342544295274 -0.5 L 25 -0.5 Z M 75.41821754429527 0.5 L 85.16456008859055 0.5 L 85.16456008859055 3.5 L 92.16456008859055 0 L 85.16456008859055 -3.5 L 85.16456008859055 -0.5 L 75.41821754429527 -0.5 Z"/><text text-anchor="middle" pointer-events="none" font-size="8px" fill="#000000" x="55.082280044295274" y="3" transform="rotate(180 55.082280044295274 0)" font-family="sans-serif">MEMBER</text></g><g class="relationship" transform="translate(490.089259829556 60.93250061723349) rotate(511.4183393064166)"><path class="outline" fill="#569480" stroke="none" d="M 25 0.5 L 84.46755506766372 0.5 L 84.46755506766372 -0.5 L 25 -0.5 Z M 125.13943006766372 0.5 L 184.60698513532745 0.5 L 184.60698513532745 3.5 L 191.60698513532745 0 L 184.60698513532745 -3.5 L 184.60698513532745 -0.5 L 125.13943006766372 -0.5 Z"/><text text-anchor="middle" pointer-events="none" font-size="8px" fill="#000000" x="104.80349256766372" y="3" transform="rotate(180 104.80349256766372 0)" font-family="sans-serif">MEMBER</text></g><g class="relationship" transform="translate(490.089259829556 60.93250061723349) rotate(200.5447238123944)"><path class="outline" fill="#569480" stroke="none" d="M 25 0.5 L 86.12337785731818 0.5 L 86.12337785731818 -0.5 L 25 -0.5 Z M 126.79525285731818 0.5 L 187.91863071463635 0.5 L 187.91863071463635 3.5 L 194.91863071463635 0 L 187.91863071463635 -3.5 L 187.91863071463635 -0.5 L 126.79525285731818 -0.5 Z"/><text text-anchor="middle" pointer-events="none" font-size="8px" fill="#000000" x="106.45931535731818" y="3" transform="rotate(180 106.45931535731818 0)" font-family="sans-serif">MEMBER</text></g><g class="relationship" transform="translate(490.089259829556 60.93250061723349) rotate(487.80234639431177)"><path class="outline" fill="#569480" stroke="none" d="M 25 0.5 L 87.75576306319925 0.5 L 87.75576306319925 -0.5 L 25 -0.5 Z M 128.42763806319925 0.5 L 191.1834011263985 0.5 L 191.1834011263985 3.5 L 198.1834011263985 0 L 191.1834011263985 -3.5 L 191.1834011263985 -0.5 L 128.42763806319925 -0.5 Z"/><text text-anchor="middle" pointer-events="none" font-size="8px" fill="#000000" x="108.09170056319925" y="3" transform="rotate(180 108.09170056319925 0)" font-family="sans-serif">MEMBER</text></g><g class="relationship" transform="translate(62.57480361427862 -18.3854353882091) rotate(513.335173646084)"><path class="outline" fill="#ECB5C9" stroke="none" d="M 25 0.5 L 73.85498323778431 0.5 L 73.85498323778431 -0.5 L 25 -0.5 Z M 121.47217073778431 0.5 L 170.32715397556862 0.5 L 170.32715397556862 3.5 L 177.32715397556862 0 L 170.32715397556862 -3.5 L 170.32715397556862 -0.5 L 121.47217073778431 -0.5 Z"/><text text-anchor="middle" pointer-events="none" font-size="8px" fill="#000000" x="97.66357698778431" y="3" transform="rotate(180 97.66357698778431 0)" font-family="sans-serif">SYNONYM</text></g><g class="relationship" transform="translate(58.54454126143105 158.56394905792655) rotate(205.9817080527448)"><path class="outline" fill="#ECB5C9" stroke="none" d="M 25 0.5 L 71.01832029013806 0.5 L 71.01832029013806 -0.5 L 25 -0.5 Z M 118.63550779013806 0.5 L 164.65382808027613 0.5 L 164.65382808027613 3.5 L 171.65382808027613 0 L 164.65382808027613 -3.5 L 164.65382808027613 -0.5 L 118.63550779013806 -0.5 Z"/><text text-anchor="middle" pointer-events="none" font-size="8px" fill="#000000" x="94.82691404013806" y="3" transform="rotate(180 94.82691404013806 0)" font-family="sans-serif">SYNONYM</text></g><g class="relationship" transform="translate(65.25590593570327 40.05225345502381) rotate(529.9980323742525)"><path class="outline" fill="#ECB5C9" stroke="none" d="M 25 0.5 L 65.8523700435662 0.5 L 65.8523700435662 -0.5 L 25 -0.5 Z M 113.4695575435662 0.5 L 154.3219275871324 0.5 L 154.3219275871324 3.5 L 161.3219275871324 0 L 154.3219275871324 -3.5 L 154.3219275871324 -0.5 L 113.4695575435662 -0.5 Z"/><text text-anchor="middle" pointer-events="none" font-size="8px" fill="#000000" x="89.6609637935662" y="3" transform="rotate(180 89.6609637935662 0)" font-family="sans-serif">SYNONYM</text></g><g class="relationship" transform="translate(11.428786913452008 8.444395546584294) rotate(513.7408008019877)"><path class="outline" fill="#ECB5C9" stroke="none" d="M 25 0.5 L 44.98333324247611 0.5 L 44.98333324247611 -0.5 L 25 -0.5 Z M 92.6005207424761 0.5 L 112.58385398495221 0.5 L 112.58385398495221 3.5 L 119.58385398495221 0 L 112.58385398495221 -3.5 L 112.58385398495221 -0.5 L 92.6005207424761 -0.5 Z"/><text text-anchor="middle" pointer-events="none" font-size="8px" fill="#000000" x="68.7919269924761" y="3" transform="rotate(180 68.7919269924761 0)" font-family="sans-serif">SYNONYM</text></g><g class="relationship" transform="translate(62.01069404844322 99.52023019039198) rotate(188.5526718754703)"><path class="outline" fill="#ECB5C9" stroke="none" d="M 25 0.5 L 63.82735555779426 0.5 L 63.82735555779426 -0.5 L 25 -0.5 Z M 111.44454305779426 0.5 L 150.27189861558853 0.5 L 150.27189861558853 3.5 L 157.27189861558853 0 L 150.27189861558853 -3.5 L 150.27189861558853 -0.5 L 111.44454305779426 -0.5 Z"/><text text-anchor="middle" pointer-events="none" font-size="8px" fill="#000000" x="87.63594930779426" y="3" transform="rotate(180 87.63594930779426 0)" font-family="sans-serif">SYNONYM</text></g><g class="relationship" transform="translate(13.093410373867698 67.42558051181359) rotate(537.8251205298028)"><path class="outline" fill="#ECB5C9" stroke="none" d="M 25 0.5 L 38.40257726452499 0.5 L 38.40257726452499 -0.5 L 25 -0.5 Z M 86.019764764525 0.5 L 99.42234202904999 0.5 L 99.42234202904999 3.5 L 106.42234202904999 0 L 99.42234202904999 -3.5 L 99.42234202904999 -0.5 L 86.019764764525 -0.5 Z"/><text text-anchor="middle" pointer-events="none" font-size="8px" fill="#000000" x="62.21117101452499" y="3" transform="rotate(180 62.21117101452499 0)" font-family="sans-serif">SYNONYM</text></g><g class="relationship" transform="translate(9.860080887264175 127.28766109493229) rotate(203.1899241597642)"><path class="outline" fill="#ECB5C9" stroke="none" d="M 25 0.5 L 42.36813668705369 0.5 L 42.36813668705369 -0.5 L 25 -0.5 Z M 89.98532418705369 0.5 L 107.35346087410738 0.5 L 107.35346087410738 3.5 L 114.35346087410738 0 L 107.35346087410738 -3.5 L 107.35346087410738 -0.5 L 89.98532418705369 -0.5 Z"/><text text-anchor="middle" pointer-events="none" font-size="8px" fill="#000000" x="66.17673043705369" y="3" transform="rotate(180 66.17673043705369 0)" font-family="sans-serif">SYNONYM</text></g></g><g class="layer nodes"><g class="node" transform="translate(217.18967654542786,67.045525920097)"><circle class="outline" cx="0" cy="0" r="25" fill="#569480" stroke="#447666" stroke-width="2px"/><text text-anchor="middle" pointer-events="none" font-family="sans-serif" dy="1.5625" font-size="25" fill="#FFFFFF"/><text text-anchor="middle" pointer-events="none" font-family="sans-serif" dy="1.5625" font-size="25" fill="#FFFFFF"/><text text-anchor="middle" pointer-events="none" font-family="sans-serif" dy="1.5625" font-size="25" fill="#FFFFFF"/><text text-anchor="middle" pointer-events="none" y="-5" font-size="10px" fill="#FFFFFF" font-family="sans-serif"> C-C</text><text text-anchor="middle" pointer-events="none" y="5" font-size="10px" fill="#FFFFFF" font-family="sans-serif"> motif</text><text text-anchor="middle" pointer-events="none" y="15" font-size="10px" fill="#FFFFFF" font-family="sans-serif"> chem…</text></g><g class="node" transform="translate(398.67416590247444,119.27412751987185)"><circle class="outline" cx="0" cy="0" r="25" fill="#A5ABB6" stroke="#9AA1AC" stroke-width="2px"/><text text-anchor="middle" pointer-events="none" font-family="sans-serif" dy="1.5625" font-size="25" fill="#FFFFFF"/><text text-anchor="middle" pointer-events="none" font-family="sans-serif" dy="1.5625" font-size="25" fill="#FFFFFF"/><text text-anchor="middle" pointer-events="none" font-family="sans-serif" dy="1.5625" font-size="25" fill="#FFFFFF"/><text text-anchor="middle" pointer-events="none" y="-5" font-size="10px" fill="#FFFFFF" font-family="sans-serif"> GPCR</text><text text-anchor="middle" pointer-events="none" y="5" font-size="10px" fill="#FFFFFF" font-family="sans-serif"> ligand</text><text text-anchor="middle" pointer-events="none" y="15" font-size="10px" fill="#FFFFFF" font-family="sans-serif"> binding</text></g><g class="node" transform="translate(299.87883567678614,164.55962328808326)"><circle class="outline" cx="0" cy="0" r="25" fill="#A5ABB6" stroke="#9AA1AC" stroke-width="2px"/><text text-anchor="middle" pointer-events="none" font-family="sans-serif" dy="1.5625" font-size="25" fill="#FFFFFF"/><text text-anchor="middle" pointer-events="none" font-family="sans-serif" dy="1.5625" font-size="25" fill="#FFFFFF"/><text text-anchor="middle" pointer-events="none" font-family="sans-serif" dy="1.5625" font-size="25" fill="#FFFFFF"/><text text-anchor="middle" pointer-events="none" y="-5" font-size="10px" fill="#FFFFFF" font-family="sans-serif"> Class</text><text text-anchor="middle" pointer-events="none" y="5" font-size="10px" fill="#FFFFFF" font-family="sans-serif"> A/1</text><text text-anchor="middle" pointer-events="none" y="15" font-size="10px" fill="#FFFFFF" font-family="sans-serif"> (Rhod…</text></g><g class="node" transform="translate(284.1577751496208,-16.24539617270388)"><circle class="outline" cx="0" cy="0" r="25" fill="#A5ABB6" stroke="#9AA1AC" stroke-width="2px"/><text text-anchor="middle" pointer-events="none" font-family="sans-serif" dy="1.5625" font-size="25" fill="#FFFFFF"/><text text-anchor="middle" pointer-events="none" font-family="sans-serif" dy="1.5625" font-size="25" fill="#FFFFFF"/><text text-anchor="middle" pointer-events="none" y="0" font-size="10px" fill="#FFFFFF" font-family="sans-serif"> GPCR</text><text text-anchor="middle" pointer-events="none" y="10" font-size="10px" fill="#FFFFFF" font-family="sans-serif"> downst…</text></g><g class="node" transform="translate(324.37711810940493,111.29017993141187)"><circle class="outline" cx="0" cy="0" r="25" fill="#A5ABB6" stroke="#9AA1AC" stroke-width="2px"/><text text-anchor="middle" pointer-events="none" font-family="sans-serif" dy="1.5625" font-size="25" fill="#FFFFFF"/><text text-anchor="middle" pointer-events="none" font-family="sans-serif" dy="1.5625" font-size="25" fill="#FFFFFF"/><text text-anchor="middle" pointer-events="none" y="0" font-size="10px" fill="#FFFFFF" font-family="sans-serif"> Signal</text><text text-anchor="middle" pointer-events="none" y="10" font-size="10px" fill="#FFFFFF" font-family="sans-serif"> Transd…</text></g><g class="node" transform="translate(358.51982552106807,159.94905130648107)"><circle class="outline" cx="0" cy="0" r="25" fill="#A5ABB6" stroke="#9AA1AC" stroke-width="2px"/><text text-anchor="middle" pointer-events="none" font-family="sans-serif" dy="1.5625" font-size="25" fill="#FFFFFF"/><text text-anchor="middle" pointer-events="none" y="5" font-size="10px" fill="#FFFFFF" font-family="sans-serif"> Chemok…</text></g><g class="node" transform="translate(353.2913572175867,237.27638165457788)"><circle class="outline" cx="0" cy="0" r="25" fill="#A5ABB6" stroke="#9AA1AC" stroke-width="2px"/><text text-anchor="middle" pointer-events="none" font-family="sans-serif" dy="1.5625" font-size="25" fill="#FFFFFF"/><text text-anchor="middle" pointer-events="none" font-family="sans-serif" dy="1.5625" font-size="25" fill="#FFFFFF"/><text text-anchor="middle" pointer-events="none" y="0" font-size="10px" fill="#FFFFFF" font-family="sans-serif"> Peptide</text><text text-anchor="middle" pointer-events="none" y="10" font-size="10px" fill="#FFFFFF" font-family="sans-serif"> ligand-…</text></g><g class="node" transform="translate(359.43148549696593,-90.2766043758917)"><circle class="outline" cx="0" cy="0" r="25" fill="#A5ABB6" stroke="#9AA1AC" stroke-width="2px"/><text text-anchor="middle" pointer-events="none" font-family="sans-serif" dy="1.5625" font-size="25" fill="#FFFFFF"/><text text-anchor="middle" pointer-events="none" font-family="sans-serif" dy="1.5625" font-size="25" fill="#FFFFFF"/><text text-anchor="middle" pointer-events="none" y="0" font-size="10px" fill="#FFFFFF" font-family="sans-serif"> Cytokine</text><text text-anchor="middle" pointer-events="none" y="10" font-size="10px" fill="#FFFFFF" font-family="sans-serif"> Signali…</text></g><g class="node" transform="translate(323.2496085688703,28.614158118337226)"><circle class="outline" cx="0" cy="0" r="25" fill="#A5ABB6" stroke="#9AA1AC" stroke-width="2px"/><text text-anchor="middle" pointer-events="none" font-family="sans-serif" dy="1.5625" font-size="25" fill="#FFFFFF"/><text text-anchor="middle" pointer-events="none" font-family="sans-serif" dy="1.5625" font-size="25" fill="#FFFFFF"/><text text-anchor="middle" pointer-events="none" y="0" font-size="10px" fill="#FFFFFF" font-family="sans-serif"> Immune</text><text text-anchor="middle" pointer-events="none" y="10" font-size="10px" fill="#FFFFFF" font-family="sans-serif"> System</text></g><g class="node" transform="translate(365.58230981865165,68.45895498387277)"><circle class="outline" cx="0" cy="0" r="25" fill="#A5ABB6" stroke="#9AA1AC" stroke-width="2px"/><text text-anchor="middle" pointer-events="none" font-family="sans-serif" dy="1.5625" font-size="25" fill="#FFFFFF"/><text text-anchor="middle" pointer-events="none" y="5" font-size="10px" fill="#FFFFFF" font-family="sans-serif"> Signaling</text></g><g class="node" transform="translate(381.7418119209474,16.341417736860556)"><circle class="outline" cx="0" cy="0" r="25" fill="#A5ABB6" stroke="#9AA1AC" stroke-width="2px"/><text text-anchor="middle" pointer-events="none" font-family="sans-serif" dy="1.5625" font-size="25" fill="#FFFFFF"/><text text-anchor="middle" pointer-events="none" y="5" font-size="10px" fill="#FFFFFF" font-family="sans-serif"> Signaling</text></g><g class="node" transform="translate(396.58330716965725,-41.40856163160369)"><circle class="outline" cx="0" cy="0" r="25" fill="#A5ABB6" stroke="#9AA1AC" stroke-width="2px"/><text text-anchor="middle" pointer-events="none" font-family="sans-serif" dy="1.5625" font-size="25" fill="#FFFFFF"/><text text-anchor="middle" pointer-events="none" font-family="sans-serif" dy="1.5625" font-size="25" fill="#FFFFFF"/><text text-anchor="middle" pointer-events="none" font-family="sans-serif" dy="1.5625" font-size="25" fill="#FFFFFF"/><text text-anchor="middle" pointer-events="none" y="-5" font-size="10px" fill="#FFFFFF" font-family="sans-serif"> G alpha</text><text text-anchor="middle" pointer-events="none" y="5" font-size="10px" fill="#FFFFFF" font-family="sans-serif"> (i)</text><text text-anchor="middle" pointer-events="none" y="15" font-size="10px" fill="#FFFFFF" font-family="sans-serif"> signall…</text></g><g class="node" transform="translate(340.0960121218667,-27.19099651370276)"><circle class="outline" cx="0" cy="0" r="25" fill="#A5ABB6" stroke="#9AA1AC" stroke-width="2px"/><text text-anchor="middle" pointer-events="none" font-family="sans-serif" dy="1.5625" font-size="25" fill="#FFFFFF"/><text text-anchor="middle" pointer-events="none" y="5" font-size="10px" fill="#FFFFFF" font-family="sans-serif"> Interleu…</text></g><g class="node" transform="translate(160.4667828324117,199.71326625587474)"><circle class="outline" cx="0" cy="0" r="25" fill="#FFE081" stroke="#9AA1AC" stroke-width="2px"/><text text-anchor="middle" pointer-events="none" font-family="sans-serif" dy="1.5625" font-size="25" fill="#FFFFFF"/><text text-anchor="middle" pointer-events="none" y="5" font-size="10px" fill="#FFFFFF" font-family="sans-serif"> 2646</text></g><g class="node" transform="translate(490.089259829556,60.93250061723349)"><circle class="outline" cx="0" cy="0" r="25" fill="#569480" stroke="#447666" stroke-width="2px"/><text text-anchor="middle" pointer-events="none" font-family="sans-serif" dy="1.5625" font-size="25" fill="#FFFFFF"/><text text-anchor="middle" pointer-events="none" y="5" font-size="10px" fill="#FFFFFF" font-family="sans-serif"> </text></g><g class="node" transform="translate(62.57480361427862,-18.3854353882091)"><circle class="outline" cx="0" cy="0" r="25" fill="#C990C0" stroke="#b261a5" stroke-width="2px"/><text text-anchor="middle" pointer-events="none" font-family="sans-serif" dy="1.5625" font-size="25" fill="#FFFFFF"/><text text-anchor="middle" pointer-events="none" y="5" font-size="10px" fill="#FFFFFF" font-family="sans-serif"> 9606</text></g><g class="node" transform="translate(58.54454126143105,158.56394905792655)"><circle class="outline" cx="0" cy="0" r="25" fill="#C990C0" stroke="#b261a5" stroke-width="2px"/><text text-anchor="middle" pointer-events="none" font-family="sans-serif" dy="1.5625" font-size="25" fill="#FFFFFF"/><text text-anchor="middle" pointer-events="none" y="5" font-size="10px" fill="#FFFFFF" font-family="sans-serif"> 9606</text></g><g class="node" transform="translate(65.25590593570327,40.05225345502381)"><circle class="outline" cx="0" cy="0" r="25" fill="#C990C0" stroke="#b261a5" stroke-width="2px"/><text text-anchor="middle" pointer-events="none" font-family="sans-serif" dy="1.5625" font-size="25" fill="#FFFFFF"/><text text-anchor="middle" pointer-events="none" y="5" font-size="10px" fill="#FFFFFF" font-family="sans-serif"> 9606</text></g><g class="node" transform="translate(-118.23426169774254,72.41301799535198)"><circle class="outline" cx="0" cy="0" r="25" fill="#C990C0" stroke="#b261a5" stroke-width="2px"/><text text-anchor="middle" pointer-events="none" font-family="sans-serif" dy="1.5625" font-size="25" fill="#FFFFFF"/><text text-anchor="middle" pointer-events="none" y="5" font-size="10px" fill="#FFFFFF" font-family="sans-serif"> 9606</text></g><g class="node" transform="translate(11.428786913452008,8.444395546584294)"><circle class="outline" cx="0" cy="0" r="25" fill="#C990C0" stroke="#b261a5" stroke-width="2px"/><text text-anchor="middle" pointer-events="none" font-family="sans-serif" dy="1.5625" font-size="25" fill="#FFFFFF"/><text text-anchor="middle" pointer-events="none" y="5" font-size="10px" fill="#FFFFFF" font-family="sans-serif"> 9606</text></g><g class="node" transform="translate(62.01069404844322,99.52023019039198)"><circle class="outline" cx="0" cy="0" r="25" fill="#C990C0" stroke="#b261a5" stroke-width="2px"/><text text-anchor="middle" pointer-events="none" font-family="sans-serif" dy="1.5625" font-size="25" fill="#FFFFFF"/><text text-anchor="middle" pointer-events="none" y="5" font-size="10px" fill="#FFFFFF" font-family="sans-serif"> 9606</text></g><g class="node" transform="translate(13.093410373867698,67.42558051181359)"><circle class="outline" cx="0" cy="0" r="25" fill="#C990C0" stroke="#b261a5" stroke-width="2px"/><text text-anchor="middle" pointer-events="none" font-family="sans-serif" dy="1.5625" font-size="25" fill="#FFFFFF"/><text text-anchor="middle" pointer-events="none" y="5" font-size="10px" fill="#FFFFFF" font-family="sans-serif"> 9606</text></g><g class="node" transform="translate(9.860080887264175,127.28766109493229)"><circle class="outline" cx="0" cy="0" r="25" fill="#C990C0" stroke="#b261a5" stroke-width="2px"/><text text-anchor="middle" pointer-events="none" font-family="sans-serif" dy="1.5625" font-size="25" fill="#FFFFFF"/><text text-anchor="middle" pointer-events="none" y="5" font-size="10px" fill="#FFFFFF" font-family="sans-serif"> 9606</text></g></g></svg>