<svg xmlns="http://www.w3.org/2000/svg" width="1086.48388671875" height="326.4660339355469" viewBox="-482.9766845703125 -83.06278991699219 1086.48388671875 326.4660339355469"><title>Neo4j Graph Visualization</title><desc>Created using Neo4j (http://www.neo4j.com/)</desc><g class="layer relationships"><g class="relationship" transform="translate(162.87953538900814 -9.360610376244212) rotate(378.374867440987)"><path class="outline" fill="#D9C8AE" stroke="none" d="M 25 0.5 L 80.78919258201006 0.5 L 80.78919258201006 -0.5 L 25 -0.5 Z M 160.60559883201006 0.5 L 216.39479141402012 0.5 L 216.39479141402012 3.5 L 223.39479141402012 0 L 216.39479141402012 -3.5 L 216.39479141402012 -0.5 L 160.60559883201006 -0.5 Z"/><text text-anchor="middle" pointer-events="none" font-size="8px" fill="#000000" x="120.69739570701006" y="3" font-family="sans-serif">mutate_from_branch</text></g><g class="relationship" transform="translate(162.87953538900814 -9.360610376244212) rotate(521.2691949822913)"><path class="outline" fill="#D9C8AE" stroke="none" d="M 25 0.5 L 78.57570988102152 0.5 L 78.57570988102152 -0.5 L 25 -0.5 Z M 132.5991473810215 0.5 L 186.17485726204305 0.5 L 186.17485726204305 3.5 L 193.17485726204305 0 L 186.17485726204305 -3.5 L 186.17485726204305 -0.5 L 132.5991473810215 -0.5 Z"/><text text-anchor="middle" pointer-events="none" font-size="8px" fill="#000000" x="105.58742863102152" y="3" transform="rotate(180 105.58742863102152 0)" font-family="sans-serif">from_location</text></g><g class="relationship" transform="translate(186.21939380533152 146.6301483438563) rotate(339.9083894245348)"><path class="outline" fill="#D9C8AE" stroke="none" d="M 25 0.5 L 69.66830225852908 0.5 L 69.66830225852908 -0.5 L 25 -0.5 Z M 149.48470850852908 0.5 L 194.15301076705816 0.5 L 194.15301076705816 3.5 L 201.15301076705816 0 L 194.15301076705816 -3.5 L 194.15301076705816 -0.5 L 149.48470850852908 -0.5 Z"/><text text-anchor="middle" pointer-events="none" font-size="8px" fill="#000000" x="109.57650538352908" y="3" font-family="sans-serif">mutate_from_branch</text></g><g class="relationship" transform="translate(186.21939380533152 146.6301483438563) rotate(200.48941086590372)"><path class="outline" fill="#D9C8AE" stroke="none" d="M 25 0.5 L 92.23335944038186 0.5 L 92.23335944038186 -0.5 L 25 -0.5 Z M 146.25679694038186 0.5 L 213.49015638076372 0.5 L 213.49015638076372 3.5 L 220.49015638076372 0 L 213.49015638076372 -3.5 L 213.49015638076372 -0.5 L 146.25679694038186 -0.5 Z"/><text text-anchor="middle" pointer-events="none" font-size="8px" fill="#000000" x="119.24507819038186" y="3" transform="rotate(180 119.24507819038186 0)" font-family="sans-serif">from_location</text></g><g class="relationship" transform="translate(197.50105500735 88.18860227947265) rotate(354.533180083576)"><path class="outline" fill="#D9C8AE" stroke="none" d="M 25 0.5 L 57.605609064168604 0.5 L 57.605609064168604 -0.5 L 25 -0.5 Z M 137.42201531416862 0.5 L 170.0276243783372 0.5 L 170.0276243783372 3.5 L 177.0276243783372 0 L 170.0276243783372 -3.5 L 170.0276243783372 -0.5 L 137.42201531416862 -0.5 Z"/><text text-anchor="middle" pointer-events="none" font-size="8px" fill="#000000" x="97.5138121891686" y="3" font-family="sans-serif">mutate_from_branch</text></g><g class="relationship" transform="translate(197.50105500735 88.18860227947265) rotate(186.50057216373057)"><path class="outline" fill="#D9C8AE" stroke="none" d="M 25 0.5 L 90.8894771609388 0.5 L 90.8894771609388 -0.5 L 25 -0.5 Z M 144.91291466093878 0.5 L 210.8023918218776 0.5 L 210.8023918218776 3.5 L 217.8023918218776 0 L 210.8023918218776 -3.5 L 210.8023918218776 -0.5 L 144.91291466093878 -0.5 Z"/><text text-anchor="middle" pointer-events="none" font-size="8px" fill="#000000" x="117.9011959109388" y="3" transform="rotate(180 117.9011959109388 0)" font-family="sans-serif">from_location</text></g><g class="relationship" transform="translate(207.93646973117217 29.393845995915868) rotate(371.7176283438249)"><path class="outline" fill="#D9C8AE" stroke="none" d="M 25 0.5 L 53.95750921173 0.5 L 53.95750921173 -0.5 L 25 -0.5 Z M 133.77391546172998 0.5 L 162.73142467346 0.5 L 162.73142467346 3.5 L 169.73142467346 0 L 162.73142467346 -3.5 L 162.73142467346 -0.5 L 133.77391546172998 -0.5 Z"/><text text-anchor="middle" pointer-events="none" font-size="8px" fill="#000000" x="93.86571233673" y="3" font-family="sans-serif">mutate_from_branch</text></g><g class="relationship" transform="translate(207.93646973117217 29.393845995915868) rotate(532.909339868754)"><path class="outline" fill="#D9C8AE" stroke="none" d="M 25 0.5 L 96.2964827166424 0.5 L 96.2964827166424 -0.5 L 25 -0.5 Z M 150.3199202166424 0.5 L 221.6164029332848 0.5 L 221.6164029332848 3.5 L 228.6164029332848 0 L 221.6164029332848 -3.5 L 221.6164029332848 -0.5 L 150.3199202166424 -0.5 Z"/><text text-anchor="middle" pointer-events="none" font-size="8px" fill="#000000" x="123.3082014666424" y="3" transform="rotate(180 123.3082014666424 0)" font-family="sans-serif">from_location</text></g><g class="relationship" transform="translate(152.015869472576 49.076644238794046) rotate(364.60564523191096)"><path class="outline" fill="#D9C8AE" stroke="none" d="M 25 0.5 L 80.28816318932027 0.5 L 80.28816318932027 -0.5 L 25 -0.5 Z M 160.10456943932027 0.5 L 215.39273262864054 0.5 L 215.39273262864054 3.5 L 222.39273262864054 0 L 215.39273262864054 -3.5 L 215.39273262864054 -0.5 L 160.10456943932027 -0.5 Z"/><text text-anchor="middle" pointer-events="none" font-size="8px" fill="#000000" x="120.19636631432027" y="3" font-family="sans-serif">mutate_from_branch</text></g><g class="relationship" transform="translate(152.015869472576 49.076644238794046) rotate(536.6019019576163)"><path class="outline" fill="#D9C8AE" stroke="none" d="M 25 0.5 L 67.53875546832298 0.5 L 67.53875546832298 -0.5 L 25 -0.5 Z M 121.56219296832298 0.5 L 164.10094843664595 0.5 L 164.10094843664595 3.5 L 171.10094843664595 0 L 164.10094843664595 -3.5 L 164.10094843664595 -0.5 L 121.56219296832298 -0.5 Z"/><text text-anchor="middle" pointer-events="none" font-size="8px" fill="#000000" x="94.55047421832298" y="3" transform="rotate(180 94.55047421832298 0)" font-family="sans-serif">from_location</text></g><g class="relationship" transform="translate(397.4407756401518 173.91376131701807) rotate(270.63802927585675)"><path class="outline" fill="#D9C8AE" stroke="none" d="M 25 0.5 L 25.092864819724035 0.5 L 25.092864819724035 -0.5 L 25 -0.5 Z M 72.88583356972404 0.5 L 72.97869838944807 0.5 L 72.97869838944807 3.5 L 79.97869838944807 0 L 72.97869838944807 -3.5 L 72.97869838944807 -0.5 L 72.88583356972404 -0.5 Z"/><text text-anchor="middle" pointer-events="none" font-size="8px" fill="#000000" x="48.989349194724035" y="3" font-family="sans-serif">mutate_fr…</text></g><g class="relationship" transform="translate(397.4407756401518 173.91376131701807) rotate(360.2543814794583)"><path class="outline" fill="#D9C8AE" stroke="none" d="M 25 0.5 L 57.91909483892789 0.5 L 57.91909483892789 -0.5 L 25 -0.5 Z M 111.94253233892789 0.5 L 144.86162717785578 0.5 L 144.86162717785578 3.5 L 151.86162717785578 0 L 144.86162717785578 -3.5 L 144.86162717785578 -0.5 L 111.94253233892789 -0.5 Z"/><text text-anchor="middle" pointer-events="none" font-size="8px" fill="#000000" x="84.93081358892789" y="3" font-family="sans-serif">from_location</text></g><g class="relationship" transform="translate(141.21411343268713 107.80480121109329) rotate(351.41397235973886)"><path class="outline" fill="#D9C8AE" stroke="none" d="M 25 0.5 L 86.74830989749464 0.5 L 86.74830989749464 -0.5 L 25 -0.5 Z M 166.56471614749464 0.5 L 228.31302604498927 0.5 L 228.31302604498927 3.5 L 235.31302604498927 0 L 228.31302604498927 -3.5 L 228.31302604498927 -0.5 L 166.56471614749464 -0.5 Z"/><text text-anchor="middle" pointer-events="none" font-size="8px" fill="#000000" x="126.65651302249464" y="3" font-family="sans-serif">mutate_from_branch</text></g><g class="relationship" transform="translate(141.21411343268713 107.80480121109329) rotate(194.28846059797087)"><path class="outline" fill="#D9C8AE" stroke="none" d="M 25 0.5 L 64.91754534623949 0.5 L 64.91754534623949 -0.5 L 25 -0.5 Z M 118.94098284623949 0.5 L 158.85852819247899 0.5 L 158.85852819247899 3.5 L 165.85852819247899 0 L 158.85852819247899 -3.5 L 158.85852819247899 -0.5 L 118.94098284623949 -0.5 Z"/><text text-anchor="middle" pointer-events="none" font-size="8px" fill="#000000" x="91.92926409623949" y="3" transform="rotate(180 91.92926409623949 0)" font-family="sans-serif">from_location</text></g><g class="relationship" transform="translate(394.09337052323116 -54.06278181357381) rotate(447.89719564870177)"><path class="outline" fill="#D9C8AE" stroke="none" d="M 25 0.5 L 26.365885940903226 0.5 L 26.365885940903226 -0.5 L 25 -0.5 Z M 89.72135469090323 0.5 L 91.08724063180645 0.5 L 91.08724063180645 3.5 L 98.08724063180645 0 L 91.08724063180645 -3.5 L 91.08724063180645 -0.5 L 89.72135469090323 -0.5 Z"/><text text-anchor="middle" pointer-events="none" font-size="8px" fill="#000000" x="58.043620315903226" y="3" font-family="sans-serif">mutate_from_…</text></g><g class="relationship" transform="translate(394.09337052323116 -54.06278181357381) rotate(363.39420416324)"><path class="outline" fill="#D9C8AE" stroke="none" d="M 25 0.5 L 59.85370488552488 0.5 L 59.85370488552488 -0.5 L 25 -0.5 Z M 113.87714238552488 0.5 L 148.73084727104975 0.5 L 148.73084727104975 3.5 L 155.73084727104975 0 L 148.73084727104975 -3.5 L 148.73084727104975 -0.5 L 113.87714238552488 -0.5 Z"/><text text-anchor="middle" pointer-events="none" font-size="8px" fill="#000000" x="86.86542363552488" y="3" font-family="sans-serif">from_location</text></g><g class="relationship" transform="translate(-71.93060470314023 -46.76008208288994) rotate(183.29098287936216)"><path class="outline" fill="#D9C8AE" stroke="none" d="M 25 0.5 L 27.951383902178605 0.5 L 27.951383902178605 -0.5 L 25 -0.5 Z M 80.1935714021786 0.5 L 83.14495530435721 0.5 L 83.14495530435721 3.5 L 90.14495530435721 0 L 83.14495530435721 -3.5 L 83.14495530435721 -0.5 L 80.1935714021786 -0.5 Z"/><text text-anchor="middle" pointer-events="none" font-size="8px" fill="#000000" x="54.072477652178605" y="3" transform="rotate(180 54.072477652178605 0)" font-family="sans-serif">mutate_fro…</text></g><g class="relationship" transform="translate(-71.93060470314023 -46.76008208288994) rotate(435.30067912081216)"><path class="outline" fill="#D9C8AE" stroke="none" d="M 25 0.5 L 25.03646311246529 0.5 L 25.03646311246529 -0.5 L 25 -0.5 Z M 79.0599006124653 0.5 L 79.09636372493058 0.5 L 79.09636372493058 3.5 L 86.09636372493058 0 L 79.09636372493058 -3.5 L 79.09636372493058 -0.5 L 79.0599006124653 -0.5 Z"/><text text-anchor="middle" pointer-events="none" font-size="8px" fill="#000000" x="52.04818186246529" y="3" font-family="sans-serif">from_location</text></g><g class="relationship" transform="translate(-307.05880050785726 -1.393027380262378) rotate(336.61059707666686)"><path class="outline" fill="#D9C8AE" stroke="none" d="M 25 0.5 L 26.731661041277818 0.5 L 26.731661041277818 -0.5 L 25 -0.5 Z M 97.20041104127782 0.5 L 98.93207208255564 0.5 L 98.93207208255564 3.5 L 105.93207208255564 0 L 98.93207208255564 -3.5 L 98.93207208255564 -0.5 L 97.20041104127782 -0.5 Z"/><text text-anchor="middle" pointer-events="none" font-size="8px" fill="#000000" x="61.96603604127782" y="3" font-family="sans-serif">mutate_from_br…</text></g><g class="relationship" transform="translate(-307.05880050785726 -1.393027380262378) rotate(519.8264609589335)"><path class="outline" fill="#D9C8AE" stroke="none" d="M 25 0.5 L 47.74829542565061 0.5 L 47.74829542565061 -0.5 L 25 -0.5 Z M 101.77173292565061 0.5 L 124.52002835130122 0.5 L 124.52002835130122 3.5 L 131.52002835130122 0 L 124.52002835130122 -3.5 L 124.52002835130122 -0.5 L 101.77173292565061 -0.5 Z"/><text text-anchor="middle" pointer-events="none" font-size="8px" fill="#000000" x="74.76001417565061" y="3" transform="rotate(180 74.76001417565061 0)" font-family="sans-serif">from_location</text></g><g class="relationship" transform="translate(-73.480318302053 178.39100118334431) rotate(522.6450546379903)"><path class="outline" fill="#D9C8AE" stroke="none" d="M 25 0.5 L 25.186688896788226 0.5 L 25.186688896788226 -0.5 L 25 -0.5 Z M 88.54215764678823 0.5 L 88.72884654357645 0.5 L 88.72884654357645 3.5 L 95.72884654357645 0 L 88.72884654357645 -3.5 L 88.72884654357645 -0.5 L 88.54215764678823 -0.5 Z"/><text text-anchor="middle" pointer-events="none" font-size="8px" fill="#000000" x="56.864423271788226" y="3" transform="rotate(180 56.864423271788226 0)" font-family="sans-serif">mutate_from_…</text></g><g class="relationship" transform="translate(-73.480318302053 178.39100118334431) rotate(284.1815456848974)"><path class="outline" fill="#D9C8AE" stroke="none" d="M 25 0.5 L 30.183416889457405 0.5 L 30.183416889457405 -0.5 L 25 -0.5 Z M 84.2068543894574 0.5 L 89.39027127891481 0.5 L 89.39027127891481 3.5 L 96.39027127891481 0 L 89.39027127891481 -3.5 L 89.39027127891481 -0.5 L 84.2068543894574 -0.5 Z"/><text text-anchor="middle" pointer-events="none" font-size="8px" fill="#000000" x="57.195135639457405" y="3" font-family="sans-serif">from_location</text></g><g class="relationship" transform="translate(-311.05416650971864 144.98727038014346) rotate(389.57043624966)"><path class="outline" fill="#D9C8AE" stroke="none" d="M 25 0.5 L 26.9230444063175 0.5 L 26.9230444063175 -0.5 L 25 -0.5 Z M 106.7394506563175 0.5 L 108.662495062635 0.5 L 108.662495062635 3.5 L 115.662495062635 0 L 108.662495062635 -3.5 L 108.662495062635 -0.5 L 106.7394506563175 -0.5 Z"/><text text-anchor="middle" pointer-events="none" font-size="8px" fill="#000000" x="66.8312475313175" y="3" font-family="sans-serif">mutate_from_branch</text></g><g class="relationship" transform="translate(-311.05416650971864 144.98727038014346) rotate(212.88341508853125)"><path class="outline" fill="#D9C8AE" stroke="none" d="M 25 0.5 L 54.58380259157471 0.5 L 54.58380259157471 -0.5 L 25 -0.5 Z M 108.60724009157471 0.5 L 138.19104268314942 0.5 L 138.19104268314942 3.5 L 145.19104268314942 0 L 138.19104268314942 -3.5 L 138.19104268314942 -0.5 L 108.60724009157471 -0.5 Z"/><text text-anchor="middle" pointer-events="none" font-size="8px" fill="#000000" x="81.59552134157471" y="3" transform="rotate(180 81.59552134157471 0)" font-family="sans-serif">from_location</text></g></g><g class="layer nodes"><g class="node" transform="translate(-43.740293506617235,60.700182143219536)"><circle class="outline" cx="0" cy="0" r="25" fill="#D9C8AE" stroke="#c0a378" stroke-width="2px"/><text text-anchor="middle" pointer-events="none" font-family="sans-serif" dy="1.5625" font-size="25" fill="#604A0E"/><text text-anchor="middle" pointer-events="none" font-family="sans-serif" dy="1.5625" font-size="25" fill="#604A0E"/><text text-anchor="middle" pointer-events="none" y="0" font-size="10px" fill="#604A0E" font-family="sans-serif"> Hong</text><text text-anchor="middle" pointer-events="none" y="10" font-size="10px" fill="#604A0E" font-family="sans-serif"> Kong</text></g><g class="node" transform="translate(162.87953538900814,-9.360610376244212)"><circle class="outline" cx="0" cy="0" r="25" fill="#F16667" stroke="#eb2728" stroke-width="2px"/><text text-anchor="middle" pointer-events="none" font-family="sans-serif" dy="1.5625" font-size="25" fill="#FFFFFF"/><text text-anchor="middle" pointer-events="none" y="5" font-size="10px" fill="#FFFFFF" font-family="sans-serif"> HongKo…</text></g><g class="node" transform="translate(398.60976398804536,68.94157175337605)"><circle class="outline" cx="0" cy="0" r="25" fill="#DA7194" stroke="#cc3c6c" stroke-width="2px"/><text text-anchor="middle" pointer-events="none" font-family="sans-serif" dy="1.5625" font-size="25" fill="#FFFFFF"/><text text-anchor="middle" pointer-events="none" y="5" font-size="10px" fill="#FFFFFF" font-family="sans-serif"> NODE_…</text></g><g class="node" transform="translate(186.21939380533152,146.6301483438563)"><circle class="outline" cx="0" cy="0" r="25" fill="#F16667" stroke="#eb2728" stroke-width="2px"/><text text-anchor="middle" pointer-events="none" font-family="sans-serif" dy="1.5625" font-size="25" fill="#FFFFFF"/><text text-anchor="middle" pointer-events="none" y="5" font-size="10px" fill="#FFFFFF" font-family="sans-serif"> HongKo…</text></g><g class="node" transform="translate(197.50105500735,88.18860227947265)"><circle class="outline" cx="0" cy="0" r="25" fill="#F16667" stroke="#eb2728" stroke-width="2px"/><text text-anchor="middle" pointer-events="none" font-family="sans-serif" dy="1.5625" font-size="25" fill="#FFFFFF"/><text text-anchor="middle" pointer-events="none" y="5" font-size="10px" fill="#FFFFFF" font-family="sans-serif"> HongKo…</text></g><g class="node" transform="translate(207.93646973117217,29.393845995915868)"><circle class="outline" cx="0" cy="0" r="25" fill="#F16667" stroke="#eb2728" stroke-width="2px"/><text text-anchor="middle" pointer-events="none" font-family="sans-serif" dy="1.5625" font-size="25" fill="#FFFFFF"/><text text-anchor="middle" pointer-events="none" y="5" font-size="10px" fill="#FFFFFF" font-family="sans-serif"> HongKo…</text></g><g class="node" transform="translate(152.015869472576,49.076644238794046)"><circle class="outline" cx="0" cy="0" r="25" fill="#F16667" stroke="#eb2728" stroke-width="2px"/><text text-anchor="middle" pointer-events="none" font-family="sans-serif" dy="1.5625" font-size="25" fill="#FFFFFF"/><text text-anchor="middle" pointer-events="none" y="5" font-size="10px" fill="#FFFFFF" font-family="sans-serif"> HongKo…</text></g><g class="node" transform="translate(397.4407756401518,173.91376131701807)"><circle class="outline" cx="0" cy="0" r="25" fill="#F16667" stroke="#eb2728" stroke-width="2px"/><text text-anchor="middle" pointer-events="none" font-family="sans-serif" dy="1.5625" font-size="25" fill="#FFFFFF"/><text text-anchor="middle" pointer-events="none" y="5" font-size="10px" fill="#FFFFFF" font-family="sans-serif"> Taiwan/…</text></g><g class="node" transform="translate(574.3006596926525,174.69898799439068)"><circle class="outline" cx="0" cy="0" r="25" fill="#D9C8AE" stroke="#c0a378" stroke-width="2px"/><text text-anchor="middle" pointer-events="none" font-family="sans-serif" dy="1.5625" font-size="25" fill="#604A0E"/><text text-anchor="middle" pointer-events="none" y="5" font-size="10px" fill="#604A0E" font-family="sans-serif"> Kaohsiu…</text></g><g class="node" transform="translate(141.21411343268713,107.80480121109329)"><circle class="outline" cx="0" cy="0" r="25" fill="#F16667" stroke="#eb2728" stroke-width="2px"/><text text-anchor="middle" pointer-events="none" font-family="sans-serif" dy="1.5625" font-size="25" fill="#FFFFFF"/><text text-anchor="middle" pointer-events="none" y="5" font-size="10px" fill="#FFFFFF" font-family="sans-serif"> HongKo…</text></g><g class="node" transform="translate(394.09337052323116,-54.06278181357381)"><circle class="outline" cx="0" cy="0" r="25" fill="#F16667" stroke="#eb2728" stroke-width="2px"/><text text-anchor="middle" pointer-events="none" font-family="sans-serif" dy="1.5625" font-size="25" fill="#FFFFFF"/><text text-anchor="middle" pointer-events="none" y="5" font-size="10px" fill="#FFFFFF" font-family="sans-serif"> Sweden/…</text></g><g class="node" transform="translate(574.5071837248965,-43.3625406318946)"><circle class="outline" cx="0" cy="0" r="25" fill="#D9C8AE" stroke="#c0a378" stroke-width="2px"/><text text-anchor="middle" pointer-events="none" font-family="sans-serif" dy="1.5625" font-size="25" fill="#604A0E"/><text text-anchor="middle" pointer-events="none" y="5" font-size="10px" fill="#604A0E" font-family="sans-serif"> Jönköping</text></g><g class="node" transform="translate(-71.93060470314023,-46.76008208288994)"><circle class="outline" cx="0" cy="0" r="25" fill="#F16667" stroke="#eb2728" stroke-width="2px"/><text text-anchor="middle" pointer-events="none" font-family="sans-serif" dy="1.5625" font-size="25" fill="#FFFFFF"/><text text-anchor="middle" pointer-events="none" y="5" font-size="10px" fill="#FFFFFF" font-family="sans-serif"> HongKo…</text></g><g class="node" transform="translate(-186.8856702689942,-53.37019802685302)"><circle class="outline" cx="0" cy="0" r="25" fill="#DA7194" stroke="#cc3c6c" stroke-width="2px"/><text text-anchor="middle" pointer-events="none" font-family="sans-serif" dy="1.5625" font-size="25" fill="#FFFFFF"/><text text-anchor="middle" pointer-events="none" y="5" font-size="10px" fill="#FFFFFF" font-family="sans-serif"> NODE_…</text></g><g class="node" transform="translate(-307.05880050785726,-1.393027380262378)"><circle class="outline" cx="0" cy="0" r="25" fill="#F16667" stroke="#eb2728" stroke-width="2px"/><text text-anchor="middle" pointer-events="none" font-family="sans-serif" dy="1.5625" font-size="25" fill="#FFFFFF"/><text text-anchor="middle" pointer-events="none" y="5" font-size="10px" fill="#FFFFFF" font-family="sans-serif"> Singapo…</text></g><g class="node" transform="translate(-453.97669952078445,52.58521105634708)"><circle class="outline" cx="0" cy="0" r="25" fill="#D9C8AE" stroke="#c0a378" stroke-width="2px"/><text text-anchor="middle" pointer-events="none" font-family="sans-serif" dy="1.5625" font-size="25" fill="#604A0E"/><text text-anchor="middle" pointer-events="none" y="5" font-size="10px" fill="#604A0E" font-family="sans-serif"> Singapore</text></g><g class="node" transform="translate(-73.480318302053,178.39100118334431)"><circle class="outline" cx="0" cy="0" r="25" fill="#F16667" stroke="#eb2728" stroke-width="2px"/><text text-anchor="middle" pointer-events="none" font-family="sans-serif" dy="1.5625" font-size="25" fill="#FFFFFF"/><text text-anchor="middle" pointer-events="none" y="5" font-size="10px" fill="#FFFFFF" font-family="sans-serif"> HongKo…</text></g><g class="node" transform="translate(-188.71300640817375,214.40324881633623)"><circle class="outline" cx="0" cy="0" r="25" fill="#DA7194" stroke="#cc3c6c" stroke-width="2px"/><text text-anchor="middle" pointer-events="none" font-family="sans-serif" dy="1.5625" font-size="25" fill="#FFFFFF"/><text text-anchor="middle" pointer-events="none" y="5" font-size="10px" fill="#FFFFFF" font-family="sans-serif"> NODE_…</text></g><g class="node" transform="translate(-311.05416650971864,144.98727038014346)"><circle class="outline" cx="0" cy="0" r="25" fill="#F16667" stroke="#eb2728" stroke-width="2px"/><text text-anchor="middle" pointer-events="none" font-family="sans-serif" dy="1.5625" font-size="25" fill="#FFFFFF"/><text text-anchor="middle" pointer-events="none" y="5" font-size="10px" fill="#FFFFFF" font-family="sans-serif"> Singapo…</text></g></g></svg>